<svg width="486" height="108" viewBox="0 0 486 108" fill="none" xmlns="http://www.w3.org/2000/svg">
<rect width="486" height="108" rx="12" fill="#EDEEEC"/>
<g filter="url(#filter0_ii_3797_96599)">
<path d="M40.0288 71.3223C40.0288 70.1773 40.9517 69.249 42.0901 69.249H51.3657C52.504 69.249 53.4269 70.1773 53.4269 71.3223C53.4269 72.4674 52.504 73.3956 51.3657 73.3956H42.0901C40.9517 73.3956 40.0288 72.4674 40.0288 71.3223Z" fill="url(#paint0_linear_3797_96599)"/>
</g>
<path d="M40.4285 71.3223C40.4285 70.3958 41.1746 69.6487 42.0901 69.6487H51.3657C52.2811 69.6487 53.0272 70.3958 53.0272 71.3223C53.0272 72.2488 52.2811 72.9959 51.3657 72.9959H42.0901C41.1746 72.9959 40.4285 72.2488 40.4285 71.3223Z" stroke="url(#paint1_linear_3797_96599)" stroke-width="0.799352"/>
<mask id="path-4-inside-1_3797_96599" fill="white">
<path fill-rule="evenodd" clip-rule="evenodd" d="M31.4716 42.2894C30.6764 44.2963 30.2379 46.4946 30.2379 48.7992L30.2377 61.4597C30.2377 61.754 29.9991 61.9926 29.7048 61.9926H28.1765C27.0381 61.9926 26.1152 62.9208 26.1152 64.0659C26.1153 65.211 27.0381 66.1392 28.1765 66.1392H55.1828C60.5 66.1392 63.2176 62.5 63.2176 59.5605L63.2178 48.7992C63.2178 40.9695 58.1559 34.3673 51.2446 32.328C51.0131 32.2597 50.8503 32.0493 50.8503 31.808V31.6778C50.8503 30.5375 49.9228 29.6045 48.7891 29.6045H44.6666C43.5329 29.6045 42.6053 30.5375 42.6053 31.6778V31.808C42.6053 32.0493 42.4429 32.2596 42.2114 32.3279C40.7266 32.766 39.3272 33.4146 38.045 34.2408C35.3435 35.9815 32.5 39.6939 31.4716 42.2894ZM34.3605 48.8049C34.3605 47.6922 34.3605 47.1601 34.7449 45.5815C35.4951 42.4998 38.7845 38.4998 41.0545 37.2676C42.7538 36.3452 44.683 35.8242 46.728 35.8242C53.5584 35.8242 59.0955 41.6359 59.0955 48.8049L59.0954 55.4138V55.414C59.0954 59.5604 59.0954 61.9924 51.0605 61.9924H34.8878C34.5935 61.9924 34.3604 61.7538 34.3604 61.4595L34.3605 48.8049Z"/>
</mask>
<g filter="url(#filter1_ii_3797_96599)">
<path fill-rule="evenodd" clip-rule="evenodd" d="M31.4716 42.2894C30.6764 44.2963 30.2379 46.4946 30.2379 48.7992L30.2377 61.4597C30.2377 61.754 29.9991 61.9926 29.7048 61.9926H28.1765C27.0381 61.9926 26.1152 62.9208 26.1152 64.0659C26.1153 65.211 27.0381 66.1392 28.1765 66.1392H55.1828C60.5 66.1392 63.2176 62.5 63.2176 59.5605L63.2178 48.7992C63.2178 40.9695 58.1559 34.3673 51.2446 32.328C51.0131 32.2597 50.8503 32.0493 50.8503 31.808V31.6778C50.8503 30.5375 49.9228 29.6045 48.7891 29.6045H44.6666C43.5329 29.6045 42.6053 30.5375 42.6053 31.6778V31.808C42.6053 32.0493 42.4429 32.2596 42.2114 32.3279C40.7266 32.766 39.3272 33.4146 38.045 34.2408C35.3435 35.9815 32.5 39.6939 31.4716 42.2894ZM34.3605 48.8049C34.3605 47.6922 34.3605 47.1601 34.7449 45.5815C35.4951 42.4998 38.7845 38.4998 41.0545 37.2676C42.7538 36.3452 44.683 35.8242 46.728 35.8242C53.5584 35.8242 59.0955 41.6359 59.0955 48.8049L59.0954 55.4138V55.414C59.0954 59.5604 59.0954 61.9924 51.0605 61.9924H34.8878C34.5935 61.9924 34.3604 61.7538 34.3604 61.4595L34.3605 48.8049Z" fill="url(#paint2_linear_3797_96599)"/>
</g>
<path d="M63.6174 48.7992V48.7992H62.8181V48.7992H63.6174ZM59.4951 48.8049V48.8049H58.6958V48.8049H59.4951ZM30.2379 48.7992L31.0372 48.7992V48.7992H30.2379ZM31.4716 42.2894L30.7284 41.995L30.7284 41.995L31.4716 42.2894ZM30.2377 61.4597L31.037 61.4597L31.037 61.4597L30.2377 61.4597ZM26.1152 64.0659L25.3159 64.0659L26.1152 64.0659ZM63.2176 59.5605L62.4183 59.5605V59.5605H63.2176ZM63.2178 48.7992L64.0171 48.7992L64.0171 48.7992L63.2178 48.7992ZM51.2446 32.328L51.4708 31.5614L51.4708 31.5614L51.2446 32.328ZM42.2114 32.3279L42.4376 33.0946L42.4376 33.0946L42.2114 32.3279ZM38.045 34.2408L37.612 33.5689L37.612 33.5689L38.045 34.2408ZM34.7449 45.5815L33.9682 45.3924L33.9682 45.3924L34.7449 45.5815ZM34.3605 48.8049L35.1599 48.8049V48.8049H34.3605ZM41.0545 37.2676L40.6732 36.5651L40.6732 36.5651L41.0545 37.2676ZM59.0955 48.8049L59.8948 48.8049L59.8948 48.8049L59.0955 48.8049ZM59.0954 55.4138L58.296 55.4138V55.4138H59.0954ZM34.3604 61.4595L33.561 61.4595L33.561 61.4595L34.3604 61.4595ZM31.0372 48.7992C31.0372 46.5966 31.4563 44.4982 32.2147 42.5839L30.7284 41.995C29.8966 44.0945 29.4385 46.3926 29.4385 48.7992H31.0372ZM31.037 61.4597L31.0372 48.7992L29.4385 48.7992L29.4383 61.4597L31.037 61.4597ZM29.7048 62.7919C30.4406 62.7919 31.037 62.1955 31.037 61.4597L29.4383 61.4597C29.4383 61.3125 29.5576 61.1932 29.7048 61.1932V62.7919ZM28.1765 62.7919H29.7048V61.1932H28.1765V62.7919ZM26.9146 64.0659C26.9146 63.3579 27.4839 62.7919 28.1765 62.7919V61.1932C26.5922 61.1932 25.3158 62.4838 25.3159 64.0659L26.9146 64.0659ZM28.1765 65.3398C27.484 65.3398 26.9146 64.7739 26.9146 64.0659L25.3159 64.0659C25.3159 65.648 26.5923 66.9385 28.1765 66.9385V65.3398ZM55.1828 65.3398H28.1765V66.9385H55.1828V65.3398ZM62.4183 59.5605C62.4183 62.0206 60.0974 65.3398 55.1828 65.3398V66.9385C60.9026 66.9385 64.017 62.9794 64.017 59.5605H62.4183ZM62.4184 48.7992L62.4183 59.5605L64.017 59.5605L64.0171 48.7992L62.4184 48.7992ZM51.0184 33.0947C57.5823 35.0314 62.4184 41.3158 62.4184 48.7992L64.0171 48.7992C64.0171 40.6231 58.7296 33.7031 51.4708 31.5614L51.0184 33.0947ZM50.051 31.808C50.051 32.4164 50.4595 32.9298 51.0184 33.0947L51.4708 31.5614C51.5668 31.5897 51.6497 31.6822 51.6497 31.808H50.051ZM50.051 31.6778V31.808H51.6497V31.6778H50.051ZM48.7891 30.4038C49.4769 30.4038 50.051 30.9745 50.051 31.6778H51.6497C51.6497 30.1004 50.3686 28.8051 48.7891 28.8051V30.4038ZM44.6666 30.4038H48.7891V28.8051H44.6666V30.4038ZM43.4047 31.6778C43.4047 30.9745 43.9788 30.4038 44.6666 30.4038V28.8051C43.087 28.8051 41.806 30.1004 41.806 31.6778H43.4047ZM43.4047 31.808V31.6778H41.806V31.808H43.4047ZM42.4376 33.0946C42.9972 32.9295 43.4047 32.4158 43.4047 31.808H41.806C41.806 31.6829 41.8886 31.5898 41.9852 31.5612L42.4376 33.0946ZM38.4779 34.9128C39.6976 34.1269 41.0276 33.5106 42.4376 33.0946L41.9852 31.5612C40.4256 32.0214 38.9567 32.7024 37.612 33.5689L38.4779 34.9128ZM32.2147 42.5839C32.6911 41.3817 33.6105 39.8734 34.7548 38.4442C35.8992 37.0149 37.2236 35.721 38.4779 34.9128L37.612 33.5689C36.1648 34.5014 34.7167 35.934 33.5069 37.445C32.297 38.956 31.2805 40.6017 30.7284 41.995L32.2147 42.5839ZM33.9682 45.3924C33.5647 47.0497 33.5612 47.6485 33.5612 48.8049H35.1599C35.1599 47.7358 35.1564 47.2704 35.5215 45.7705L33.9682 45.3924ZM40.6732 36.5651C39.4011 37.2556 37.9313 38.6592 36.6993 40.2396C35.4647 41.8233 34.3809 43.6973 33.9682 45.3924L35.5215 45.7705C35.8591 44.384 36.795 42.7171 37.9602 41.2225C39.1281 39.7243 40.438 38.5118 41.4359 37.9701L40.6732 36.5651ZM46.728 35.0249C44.5452 35.0249 42.4855 35.5814 40.6732 36.5651L41.4359 37.9701C43.0222 37.1091 44.8207 36.6236 46.728 36.6236V35.0249ZM59.8948 48.8049C59.8948 41.2313 54.0359 35.0249 46.728 35.0249V36.6236C53.0809 36.6236 58.2961 42.0404 58.2961 48.8049L59.8948 48.8049ZM59.8947 55.4139L59.8948 48.8049L58.2961 48.8049L58.296 55.4138L59.8947 55.4139ZM59.8947 55.414V55.4138H58.296V55.414H59.8947ZM51.0605 62.7918C55.0742 62.7918 57.4262 62.2047 58.6876 60.7901C59.3276 60.0724 59.6203 59.2144 59.7598 58.3134C59.8966 57.4292 59.8947 56.4329 59.8947 55.414H58.296C58.296 56.4683 58.2941 57.3309 58.1799 58.0689C58.0682 58.7901 57.8587 59.3175 57.4944 59.7261C56.7471 60.5641 55.0816 61.193 51.0605 61.193V62.7918ZM34.8878 62.7918H51.0605V61.193H34.8878V62.7918ZM33.561 61.4595C33.561 62.1845 34.1414 62.7918 34.8878 62.7918V61.193C35.0456 61.193 35.1597 61.3231 35.1597 61.4595L33.561 61.4595ZM33.5612 48.8049L33.561 61.4595L35.1597 61.4595L35.1599 48.8049L33.5612 48.8049Z" fill="url(#paint3_linear_3797_96599)" mask="url(#path-4-inside-1_3797_96599)"/>
<path d="M115.736 25.392H117.392V26.952H123.344V28.368H117.392V29.976H122.48V31.368H117.392V33H123.944V34.44H109.256V33H115.736V31.368H110.888V29.976H115.736V28.368H109.928V26.952H115.736V25.392ZM112.736 40.488V42.24H120.488V40.488H112.736ZM120.488 39.144V37.368H112.736V39.144H120.488ZM112.736 43.584V47.4H111.08V35.952H122.144V45.312C122.144 46.608 121.464 47.256 120.104 47.256H118.088L117.68 45.72L119.6 45.792C120.192 45.792 120.488 45.512 120.488 44.952V43.584H112.736ZM104.912 25.656C106.48 26.824 107.832 28.04 108.968 29.304L107.792 30.504C106.784 29.352 105.416 28.128 103.688 26.832L104.912 25.656ZM102.008 32.736H107.096V43.272C107.72 42.68 108.48 41.928 109.376 41.016L109.832 42.84C108.504 44.216 107.08 45.456 105.56 46.56L104.888 45.024C105.256 44.688 105.44 44.32 105.44 43.92V34.392H102.008V32.736ZM135.224 36.624C134.248 37.056 133.104 37.52 131.792 38.016V45.144C131.792 46.504 131.088 47.184 129.68 47.184H127.16L126.776 45.504C127.864 45.568 128.632 45.6 129.08 45.6C129.704 45.6 130.016 45.296 130.016 44.688V38.64C128.24 39.184 127 39.552 126.296 39.744L125.864 38.112C127.368 37.776 128.752 37.408 130.016 37.008V31.464H126.248V29.808H130.016V25.464H131.792V29.808H134.912V31.464H131.792V36.384C132.88 35.952 134.024 35.456 135.224 34.896V36.624ZM135.656 27.264H147.704V28.944H143.816V44.904C143.816 46.392 143.096 47.136 141.656 47.136H137.72L137.36 45.48C139.088 45.544 140.32 45.576 141.056 45.576C141.712 45.576 142.04 45.208 142.04 44.472V28.944H135.656V27.264ZM150.608 47.184L150.248 45.504C151.208 45.568 151.896 45.6 152.312 45.6C153 45.6 153.344 45.232 153.344 44.496V38.808C152.384 39.128 151.36 39.44 150.272 39.744L149.84 38.112C151.072 37.84 152.24 37.528 153.344 37.176V31.656H150.32V30H153.344V25.464H155.096V30H157.304V31.656H155.096V36.552C156.056 36.168 157.024 35.736 158 35.256V36.984C157.248 37.32 156.28 37.72 155.096 38.184V44.928C155.096 46.432 154.368 47.184 152.912 47.184H150.608ZM167.552 25.704C168.8 26.936 169.792 28.056 170.528 29.064L169.112 30.048C168.392 28.992 167.408 27.84 166.16 26.592L167.552 25.704ZM162.32 25.44H164.048V31.104H170.96V32.808H167.144V44.52C167.144 45.144 167.432 45.456 168.008 45.456H169.16C169.56 45.456 169.848 45.28 170.024 44.928C170.232 44.512 170.384 43.272 170.48 41.208L172.04 41.712C171.896 44.256 171.624 45.816 171.224 46.392C170.84 46.856 170.264 47.088 169.496 47.088H167.456C166.112 47.088 165.44 46.352 165.44 44.88V32.808H163.976C163.592 39.368 161.752 44.248 158.456 47.448L157.184 46.296C160.224 43.352 161.912 38.856 162.248 32.808H158.456V31.104H162.32V25.44Z" fill="#22262A"/>
<path d="M101.66 63.64H118.26V65.04H108.9C107.713 67.04 106.34 68.6667 104.78 69.92C108.1 69.72 111.247 69.3733 114.22 68.88C113.62 68.16 113 67.46 112.36 66.78L113.52 66.04C115.36 67.9867 116.78 69.7 117.78 71.18L116.6 72.02C116.213 71.4333 115.753 70.7867 115.22 70.08C111.207 70.7067 107.013 71.1333 102.64 71.36L102.26 70.1C104.207 68.9933 105.867 67.3067 107.24 65.04H101.66V63.64ZM102.6 74.08H109.26V71.76H110.74V74.08H117.3V75.46H110.74V78.8H118.8V80.2H101.2V78.8H109.26V75.46H102.6V74.08ZM126.2 62.74C127.027 63.82 127.787 64.9533 128.48 66.14L127.18 66.8C126.447 65.4933 125.68 64.3533 124.88 63.38L126.2 62.74ZM135.1 62.94C134.62 64.3933 134.02 65.6867 133.3 66.82H137.42V68.22H130.74V69.16C130.7 70.2667 130.607 71.1933 130.46 71.94H138.58V73.34H131.3C132.287 76.0467 134.873 78.1467 139.06 79.64L138.22 80.98C133.833 79.2067 131.1 76.7933 130.02 73.74C129.633 74.9 129.127 75.9 128.5 76.74C127.127 78.5133 124.907 79.8867 121.84 80.86L121.06 79.6C124.127 78.6133 126.26 77.32 127.46 75.72C127.953 74.9867 128.333 74.1933 128.6 73.34H121.42V71.94H128.96C129.147 71.06 129.247 70.1333 129.26 69.16V68.22H122.56V66.82H131.7C132.433 65.7 133.107 64.28 133.72 62.56L135.1 62.94ZM144.9 70.66V69.26H150.86V66.32H152.3V69.26H155.08V70.66H152.3V77.74C152.3 79.02 151.707 79.66 150.52 79.66H148.48L148.16 78.28C148.867 78.3467 149.487 78.38 150.02 78.38C150.58 78.38 150.86 78.0533 150.86 77.4V72.18C149.62 74.2733 147.68 76.12 145.04 77.72L144.28 76.48C147.4 74.76 149.48 72.82 150.52 70.66H144.9ZM154.3 80.84L153.94 79.5L155.68 79.54C156.293 79.54 156.6 79.1533 156.6 78.38V65H148.88V63.66H158V78.78C158 80.1533 157.327 80.84 155.98 80.84H154.3ZM141.98 65.98H143.38V81.02H141.98V65.98ZM144.88 62.52C145.853 63.64 146.68 64.8067 147.36 66.02L146.06 66.7C145.273 65.3 144.44 64.1 143.56 63.1L144.88 62.52ZM163.82 62.72H165.24V66.5H167.56V67.88H165.24V69.42C166.187 70.3933 167.167 71.5067 168.18 72.76L167.36 73.98C166.533 72.7133 165.827 71.7067 165.24 70.96V80.98H163.82V70.96C163.18 72.88 162.36 74.62 161.36 76.18L160.74 74.62C162.153 72.6867 163.167 70.44 163.78 67.88H161.38V66.5H163.82V62.72ZM171.04 72.06C170.413 74.8067 169.487 77.22 168.26 79.3L167.02 78.5C168.26 76.4733 169.16 74.2267 169.72 71.76L171.04 72.06ZM176.96 71.66C177.8 73.9133 178.52 76.3267 179.12 78.9L177.82 79.48C177.167 76.72 176.447 74.2533 175.66 72.08L176.96 71.66ZM170.44 80.78L170.16 79.44C171.013 79.4933 171.62 79.52 171.98 79.52C172.527 79.52 172.8 79.2267 172.8 78.64V70.1H167.92V68.72H179.14V70.1H174.24V79C174.24 80.1867 173.653 80.78 172.48 80.78H170.44ZM168.98 63.86H178.1V65.22H168.98V63.86ZM196.08 74.5C195.56 76.18 194.92 77.6733 194.16 78.98H198.46V80.32H181.58V78.98H192.62C193.38 77.6467 194.067 76.0267 194.68 74.12L196.08 74.5ZM185.12 74.36C185.693 75.4133 186.213 76.66 186.68 78.1L185.38 78.44C184.98 77.16 184.46 75.94 183.82 74.78L185.12 74.36ZM189.74 73.96C190.22 75.1733 190.633 76.5 190.98 77.94L189.7 78.28C189.353 76.88 188.927 75.58 188.42 74.38L189.74 73.96ZM184.82 72.04H195.2V73.32H184.82V72.04ZM184.02 65.66C183.487 66.6867 182.9 67.6067 182.26 68.42L181.02 67.64C182.26 66.12 183.16 64.44 183.72 62.6L185.12 62.9C185.013 63.2467 184.84 63.74 184.6 64.38H189.86V65.66H186.98C187.34 66.4467 187.607 67.1 187.78 67.62L186.46 68.1C186.18 67.1933 185.873 66.38 185.54 65.66H184.02ZM192.44 65.66C192.053 66.42 191.667 67.0733 191.28 67.62L190.06 66.84C191.007 65.5467 191.687 64.1333 192.1 62.6L193.48 62.9C193.373 63.2467 193.213 63.74 193 64.38H198.84V65.66H195.66C196.1 66.4067 196.447 67.12 196.7 67.8L195.38 68.28C195.007 67.3467 194.607 66.4733 194.18 65.66H192.44ZM190.46 67.64C192.953 69.4667 195.827 70.9 199.08 71.94L198.38 73.18C195.087 72.06 192.293 70.6067 190 68.82C187.893 70.4867 185.093 71.9333 181.6 73.16L180.92 71.92C184.387 70.7467 187.26 69.32 189.54 67.64H190.46ZM216.18 67.04V76.5H214.74V68.44H205.18V76.54H203.74V67.04H208.8C208.987 66.3733 209.133 65.6467 209.24 64.86H201.2V63.5H218.8V64.86H210.76C210.627 65.74 210.473 66.4667 210.3 67.04H216.18ZM211.32 76.54C213.973 77.4467 216.327 78.5 218.38 79.7L217.5 81.06C215.193 79.62 212.867 78.5067 210.52 77.72L211.32 76.54ZM209.26 69.64H210.74V72.82C210.66 74.9933 209.953 76.7467 208.62 78.08C207.353 79.2933 205.253 80.24 202.32 80.92L201.5 79.64C204.407 79 206.427 78.1533 207.56 77.1C208.627 76.0067 209.193 74.58 209.26 72.82V69.64Z" fill="#90969F"/>
<path d="M269.36 64.28V77.16H265.94V78.54H264.56V64.28H269.36ZM265.94 75.84H268V65.62H265.94V75.84ZM271.9 63.34H279.74V67.54H271.9V63.34ZM278.4 66.4V64.48H273.22V66.4H278.4ZM276.4 68.64H281.36V72.64H276.4V68.64ZM280.12 71.58V69.7H277.64V71.58H280.12ZM270.1 74.46H275.12V73.12H276.5V74.46H281.7V75.8H277.94C278.873 77.08 280.34 78.2133 282.34 79.2L281.4 80.38C279.173 78.9933 277.613 77.4667 276.72 75.8H276.5V81.04H275.12V75.8H274.9C273.78 77.6667 272.013 79.1933 269.6 80.38L268.82 79.14C271.007 78.26 272.627 77.1467 273.68 75.8H270.1V74.46ZM270.28 68.64H275.22V72.64H270.28V68.64ZM273.98 71.58V69.7H271.52V71.58H273.98ZM299.24 72.08V81H297.78V80.08H288.3V81H286.84V72.08H299.24ZM288.3 78.8H297.78V76.72H288.3V78.8ZM288.3 75.48H297.78V73.36H288.3V75.48ZM285.12 64.62H292.38C292.06 63.8867 291.74 63.26 291.42 62.74L292.94 62.5C293.273 63.14 293.573 63.8467 293.84 64.62H300.9V65.94H297.72C297.413 67.0733 297.007 68.14 296.5 69.14H301.82V70.48H284.18V69.14H289.34C289.06 68.1 288.693 67.0333 288.24 65.94H285.12V64.62ZM289.76 65.94C290.107 66.86 290.447 67.9267 290.78 69.14H295.1C295.66 68.1 296.053 67.0333 296.28 65.94H289.76Z" fill="#90969F"/>
<rect x="235" y="61" width="22" height="22" rx="6" fill="#D0F5CE"/>
<path d="M246 79C246.791 79 247.404 78.4002 247.404 77.6255H244.596C244.596 78.4002 245.209 79 246 79ZM250.609 74.5265V70.9527C250.609 68.8035 249.051 67.0041 247.021 66.5292V66.0794C247.021 65.5796 246.74 65.1297 246.255 65.0298C245.553 64.8673 244.979 65.3921 244.979 66.0669V66.5417C242.949 67.0041 241.391 68.8035 241.391 70.9527V74.5265L240 75.926V76.6258H252V75.926L250.609 74.5265Z" fill="#258832"/>
<path d="M426 54C426 54.5304 425.789 55.0391 425.414 55.4142C425.039 55.7893 424.53 56 424 56C423.47 56 422.961 55.7893 422.586 55.4142C422.211 55.0391 422 54.5304 422 54C422 53.4696 422.211 52.9609 422.586 52.5858C422.961 52.2107 423.47 52 424 52C424.53 52 425.039 52.2107 425.414 52.5858C425.789 52.9609 426 53.4696 426 54ZM435 54C435 54.5304 434.789 55.0391 434.414 55.4142C434.039 55.7893 433.53 56 433 56C432.47 56 431.961 55.7893 431.586 55.4142C431.211 55.0391 431 54.5304 431 54C431 53.4696 431.211 52.9609 431.586 52.5858C431.961 52.2107 432.47 52 433 52C433.53 52 434.039 52.2107 434.414 52.5858C434.789 52.9609 435 53.4696 435 54ZM442 56C442.53 56 443.039 55.7893 443.414 55.4142C443.789 55.0391 444 54.5304 444 54C444 53.4696 443.789 52.9609 443.414 52.5858C443.039 52.2107 442.53 52 442 52C441.47 52 440.961 52.2107 440.586 52.5858C440.211 52.9609 440 53.4696 440 54C440 54.5304 440.211 55.0391 440.586 55.4142C440.961 55.7893 441.47 56 442 56Z" fill="#666C75"/>
<defs>
<filter id="filter0_ii_3797_96599" x="40.0288" y="69.249" width="14.4638" height="5.21229" filterUnits="userSpaceOnUse" color-interpolation-filters="sRGB">
<feFlood flood-opacity="0" result="BackgroundImageFix"/>
<feBlend mode="normal" in="SourceGraphic" in2="BackgroundImageFix" result="shape"/>
<feColorMatrix in="SourceAlpha" type="matrix" values="0 0 0 0 0 0 0 0 0 0 0 0 0 0 0 0 0 0 127 0" result="hardAlpha"/>
<feOffset dx="0.598345" dy="1.19669"/>
<feGaussianBlur stdDeviation="0.448759"/>
<feComposite in2="hardAlpha" operator="arithmetic" k2="-1" k3="1"/>
<feColorMatrix type="matrix" values="0 0 0 0 1 0 0 0 0 1 0 0 0 0 1 0 0 0 0.5 0"/>
<feBlend mode="normal" in2="shape" result="effect1_innerShadow_3797_96599"/>
<feColorMatrix in="SourceAlpha" type="matrix" values="0 0 0 0 0 0 0 0 0 0 0 0 0 0 0 0 0 0 127 0" result="hardAlpha"/>
<feOffset dx="1.5987" dy="1.5987"/>
<feGaussianBlur stdDeviation="0.532901"/>
<feComposite in2="hardAlpha" operator="arithmetic" k2="-1" k3="1"/>
<feColorMatrix type="matrix" values="0 0 0 0 1 0 0 0 0 1 0 0 0 0 1 0 0 0 0.5 0"/>
<feBlend mode="normal" in2="effect1_innerShadow_3797_96599" result="effect2_innerShadow_3797_96599"/>
</filter>
<filter id="filter1_ii_3797_96599" x="26.1152" y="29.6045" width="38.1683" height="37.601" filterUnits="userSpaceOnUse" color-interpolation-filters="sRGB">
<feFlood flood-opacity="0" result="BackgroundImageFix"/>
<feBlend mode="normal" in="SourceGraphic" in2="BackgroundImageFix" result="shape"/>
<feColorMatrix in="SourceAlpha" type="matrix" values="0 0 0 0 0 0 0 0 0 0 0 0 0 0 0 0 0 0 127 0" result="hardAlpha"/>
<feOffset dx="0.598345" dy="1.19669"/>
<feGaussianBlur stdDeviation="0.448759"/>
<feComposite in2="hardAlpha" operator="arithmetic" k2="-1" k3="1"/>
<feColorMatrix type="matrix" values="0 0 0 0 1 0 0 0 0 1 0 0 0 0 1 0 0 0 0.5 0"/>
<feBlend mode="normal" in2="shape" result="effect1_innerShadow_3797_96599"/>
<feColorMatrix in="SourceAlpha" type="matrix" values="0 0 0 0 0 0 0 0 0 0 0 0 0 0 0 0 0 0 127 0" result="hardAlpha"/>
<feOffset dx="1.5987" dy="1.5987"/>
<feGaussianBlur stdDeviation="0.532901"/>
<feComposite in2="hardAlpha" operator="arithmetic" k2="-1" k3="1"/>
<feColorMatrix type="matrix" values="0 0 0 0 1 0 0 0 0 1 0 0 0 0 1 0 0 0 0.5 0"/>
<feBlend mode="normal" in2="effect1_innerShadow_3797_96599" result="effect2_innerShadow_3797_96599"/>
</filter>
<linearGradient id="paint0_linear_3797_96599" x1="26.1152" y1="25.3371" x2="68.8136" y2="80.2016" gradientUnits="userSpaceOnUse">
<stop stop-color="#EBEBEB"/>
<stop offset="0.697897" stop-color="#A4A4A4"/>
<stop offset="1" stop-color="#CDCDCD"/>
</linearGradient>
<linearGradient id="paint1_linear_3797_96599" x1="106.241" y1="34.5958" x2="105.484" y2="72.8199" gradientUnits="userSpaceOnUse">
<stop stop-color="#B5B5B5"/>
<stop offset="1" stop-color="#787878"/>
</linearGradient>
<linearGradient id="paint2_linear_3797_96599" x1="26.1152" y1="26.0442" x2="59.684" y2="77.7451" gradientUnits="userSpaceOnUse">
<stop stop-color="#EBEBEB"/>
<stop offset="0.697897" stop-color="#A4A4A4"/>
<stop offset="1" stop-color="#CDCDCD"/>
</linearGradient>
<linearGradient id="paint3_linear_3797_96599" x1="106.241" y1="33.7687" x2="105.714" y2="65.6626" gradientUnits="userSpaceOnUse">
<stop stop-color="#B5B5B5"/>
<stop offset="1" stop-color="#787878"/>
</linearGradient>
</defs>
</svg>
