<svg width="486" height="108" viewBox="0 0 486 108" fill="none" xmlns="http://www.w3.org/2000/svg">
<rect width="486" height="108" rx="12" fill="#4078F6"/>
<g filter="url(#filter0_ii_3797_96619)">
<path d="M40.0288 71.3223C40.0288 70.1773 40.9517 69.249 42.0901 69.249H51.3657C52.504 69.249 53.4269 70.1773 53.4269 71.3223C53.4269 72.4674 52.504 73.3956 51.3657 73.3956H42.0901C40.9517 73.3956 40.0288 72.4674 40.0288 71.3223Z" fill="url(#paint0_linear_3797_96619)"/>
</g>
<path d="M40.4285 71.3223C40.4285 70.3958 41.1746 69.6487 42.0901 69.6487H51.3657C52.2811 69.6487 53.0272 70.3958 53.0272 71.3223C53.0272 72.2488 52.2811 72.9959 51.3657 72.9959H42.0901C41.1746 72.9959 40.4285 72.2488 40.4285 71.3223Z" stroke="url(#paint1_linear_3797_96619)" stroke-width="0.799352"/>
<mask id="path-4-inside-1_3797_96619" fill="white">
<path fill-rule="evenodd" clip-rule="evenodd" d="M31.4716 42.2894C30.6764 44.2963 30.2379 46.4946 30.2379 48.7992L30.2377 61.4597C30.2377 61.754 29.9991 61.9926 29.7048 61.9926H28.1765C27.0381 61.9926 26.1152 62.9208 26.1152 64.0659C26.1153 65.211 27.0381 66.1392 28.1765 66.1392H55.1828C60.5 66.1392 63.2176 62.5 63.2176 59.5605L63.2178 48.7992C63.2178 40.9695 58.1559 34.3673 51.2446 32.328C51.0131 32.2597 50.8503 32.0493 50.8503 31.808V31.6778C50.8503 30.5375 49.9228 29.6045 48.7891 29.6045H44.6666C43.5329 29.6045 42.6053 30.5375 42.6053 31.6778V31.808C42.6053 32.0493 42.4429 32.2596 42.2114 32.3279C40.7266 32.766 39.3272 33.4146 38.045 34.2408C35.3435 35.9815 32.5 39.6939 31.4716 42.2894ZM34.3605 48.8049C34.3605 47.6922 34.3605 47.1601 34.7449 45.5815C35.4951 42.4998 38.7845 38.4998 41.0545 37.2676C42.7538 36.3452 44.683 35.8242 46.728 35.8242C53.5584 35.8242 59.0955 41.6359 59.0955 48.8049L59.0954 55.4138V55.414C59.0954 59.5604 59.0954 61.9924 51.0605 61.9924H34.8878C34.5935 61.9924 34.3604 61.7538 34.3604 61.4595L34.3605 48.8049Z"/>
</mask>
<g filter="url(#filter1_ii_3797_96619)">
<path fill-rule="evenodd" clip-rule="evenodd" d="M31.4716 42.2894C30.6764 44.2963 30.2379 46.4946 30.2379 48.7992L30.2377 61.4597C30.2377 61.754 29.9991 61.9926 29.7048 61.9926H28.1765C27.0381 61.9926 26.1152 62.9208 26.1152 64.0659C26.1153 65.211 27.0381 66.1392 28.1765 66.1392H55.1828C60.5 66.1392 63.2176 62.5 63.2176 59.5605L63.2178 48.7992C63.2178 40.9695 58.1559 34.3673 51.2446 32.328C51.0131 32.2597 50.8503 32.0493 50.8503 31.808V31.6778C50.8503 30.5375 49.9228 29.6045 48.7891 29.6045H44.6666C43.5329 29.6045 42.6053 30.5375 42.6053 31.6778V31.808C42.6053 32.0493 42.4429 32.2596 42.2114 32.3279C40.7266 32.766 39.3272 33.4146 38.045 34.2408C35.3435 35.9815 32.5 39.6939 31.4716 42.2894ZM34.3605 48.8049C34.3605 47.6922 34.3605 47.1601 34.7449 45.5815C35.4951 42.4998 38.7845 38.4998 41.0545 37.2676C42.7538 36.3452 44.683 35.8242 46.728 35.8242C53.5584 35.8242 59.0955 41.6359 59.0955 48.8049L59.0954 55.4138V55.414C59.0954 59.5604 59.0954 61.9924 51.0605 61.9924H34.8878C34.5935 61.9924 34.3604 61.7538 34.3604 61.4595L34.3605 48.8049Z" fill="url(#paint2_linear_3797_96619)"/>
</g>
<path d="M63.6174 48.7992V48.7992H62.8181V48.7992H63.6174ZM59.4951 48.8049V48.8049H58.6958V48.8049H59.4951ZM30.2379 48.7992L31.0372 48.7992V48.7992H30.2379ZM31.4716 42.2894L30.7284 41.995L31.4716 42.2894ZM30.2377 61.4597L31.037 61.4597L30.2377 61.4597ZM26.1152 64.0659L25.3159 64.0659L26.1152 64.0659ZM63.2176 59.5605L62.4183 59.5605V59.5605H63.2176ZM63.2178 48.7992L64.0171 48.7992V48.7992H63.2178ZM51.2446 32.328L51.4708 31.5614V31.5613L51.2446 32.328ZM42.2114 32.3279L42.4376 33.0946V33.0946L42.2114 32.3279ZM38.045 34.2408L37.612 33.5689L38.045 34.2408ZM34.7449 45.5815L33.9682 45.3924L34.7449 45.5815ZM34.3605 48.8049L35.1599 48.8049V48.8049H34.3605ZM41.0545 37.2676L40.6732 36.5651V36.5651L41.0545 37.2676ZM59.0955 48.8049L59.8948 48.8049V48.8049H59.0955ZM59.0954 55.4138L58.296 55.4138V55.4138H59.0954ZM34.3604 61.4595L33.561 61.4595V61.4595L34.3604 61.4595ZM31.0372 48.7992C31.0372 46.5966 31.4563 44.4982 32.2147 42.5839L30.7284 41.995C29.8966 44.0945 29.4385 46.3926 29.4385 48.7992H31.0372ZM31.037 61.4597L31.0372 48.7992L29.4385 48.7992L29.4383 61.4597L31.037 61.4597ZM29.7048 62.7919C30.4406 62.7919 31.037 62.1955 31.037 61.4597L29.4383 61.4597C29.4383 61.3125 29.5576 61.1932 29.7048 61.1932V62.7919ZM28.1765 62.7919H29.7048V61.1932H28.1765V62.7919ZM26.9146 64.0659C26.9146 63.3579 27.4839 62.7919 28.1765 62.7919V61.1932C26.5922 61.1932 25.3158 62.4838 25.3159 64.0659L26.9146 64.0659ZM28.1765 65.3398C27.484 65.3398 26.9146 64.7739 26.9146 64.0659L25.3159 64.0659C25.3159 65.648 26.5923 66.9385 28.1765 66.9385V65.3398ZM55.1828 65.3398H28.1765V66.9385H55.1828V65.3398ZM62.4183 59.5605C62.4183 62.0206 60.0974 65.3398 55.1828 65.3398V66.9385C60.9026 66.9385 64.017 62.9794 64.017 59.5605H62.4183ZM62.4184 48.7992L62.4183 59.5605L64.017 59.5605L64.0171 48.7992L62.4184 48.7992ZM51.0184 33.0947C57.5823 35.0314 62.4184 41.3158 62.4184 48.7992H64.0171C64.0171 40.6231 58.7296 33.7031 51.4708 31.5614L51.0184 33.0947ZM50.051 31.808C50.051 32.4164 50.4595 32.9298 51.0184 33.0947L51.4708 31.5613C51.5668 31.5897 51.6497 31.6822 51.6497 31.808H50.051ZM50.051 31.6778V31.808H51.6497V31.6778H50.051ZM48.7891 30.4038C49.4769 30.4038 50.051 30.9745 50.051 31.6778H51.6497C51.6497 30.1004 50.3686 28.8051 48.7891 28.8051V30.4038ZM44.6666 30.4038H48.7891V28.8051H44.6666V30.4038ZM43.4047 31.6778C43.4047 30.9745 43.9788 30.4038 44.6666 30.4038V28.8051C43.087 28.8051 41.806 30.1004 41.806 31.6778H43.4047ZM43.4047 31.808V31.6778H41.806V31.808H43.4047ZM42.4376 33.0946C42.9972 32.9295 43.4047 32.4158 43.4047 31.808H41.806C41.806 31.6829 41.8886 31.5898 41.9852 31.5612L42.4376 33.0946ZM38.4779 34.9128C39.6976 34.1269 41.0276 33.5106 42.4376 33.0946L41.9852 31.5612C40.4256 32.0214 38.9567 32.7024 37.612 33.5689L38.4779 34.9128ZM32.2147 42.5839C32.6911 41.3817 33.6105 39.8734 34.7548 38.4442C35.8992 37.0149 37.2236 35.721 38.4779 34.9128L37.612 33.5689C36.1648 34.5014 34.7167 35.934 33.5069 37.445C32.297 38.956 31.2805 40.6017 30.7284 41.995L32.2147 42.5839ZM33.9682 45.3924C33.5647 47.0497 33.5612 47.6485 33.5612 48.8049H35.1599C35.1599 47.7358 35.1564 47.2704 35.5215 45.7705L33.9682 45.3924ZM40.6732 36.5651C39.4011 37.2556 37.9313 38.6592 36.6993 40.2396C35.4647 41.8233 34.3809 43.6973 33.9682 45.3924L35.5215 45.7705C35.8591 44.384 36.795 42.7171 37.9602 41.2225C39.1281 39.7243 40.438 38.5118 41.4359 37.9701L40.6732 36.5651ZM46.728 35.0249C44.5452 35.0249 42.4855 35.5814 40.6732 36.5651L41.4359 37.9701C43.0222 37.1091 44.8207 36.6236 46.728 36.6236V35.0249ZM59.8948 48.8049C59.8948 41.2313 54.0359 35.0249 46.728 35.0249V36.6236C53.0809 36.6236 58.2961 42.0404 58.2961 48.8049H59.8948ZM59.8947 55.4139L59.8948 48.8049L58.2961 48.8049L58.296 55.4138L59.8947 55.4139ZM59.8947 55.414V55.4138H58.296V55.414H59.8947ZM51.0605 62.7918C55.0742 62.7918 57.4262 62.2047 58.6876 60.7901C59.3276 60.0724 59.6203 59.2144 59.7598 58.3134C59.8966 57.4292 59.8947 56.4329 59.8947 55.414H58.296C58.296 56.4683 58.2941 57.3309 58.1799 58.0689C58.0682 58.7901 57.8587 59.3175 57.4944 59.7261C56.7471 60.5641 55.0816 61.1931 51.0605 61.1931V62.7918ZM34.8878 62.7918H51.0605V61.1931H34.8878V62.7918ZM33.561 61.4595C33.561 62.1845 34.1414 62.7918 34.8878 62.7918V61.1931C35.0456 61.1931 35.1597 61.3231 35.1597 61.4595L33.561 61.4595ZM33.5612 48.8049L33.561 61.4595L35.1597 61.4595L35.1599 48.8049L33.5612 48.8049Z" fill="url(#paint3_linear_3797_96619)" mask="url(#path-4-inside-1_3797_96619)"/>
<path d="M106.472 42.864C105.672 44.64 104.752 46.184 103.712 47.496L102.32 46.512C103.36 45.344 104.256 43.888 105.008 42.144L106.472 42.864ZM110.384 42.552C110.864 43.864 111.304 45.352 111.704 47.016L110 47.4C109.664 45.672 109.256 44.168 108.776 42.888L110.384 42.552ZM115.376 42.336C116.064 43.792 116.664 45.336 117.176 46.968L115.496 47.352C115 45.544 114.432 43.992 113.792 42.696L115.376 42.336ZM120.392 42.096C121.688 43.712 122.704 45.152 123.44 46.416L122 47.424C121.296 46.112 120.296 44.624 119 42.96L120.392 42.096ZM105.152 32.304C104.48 33.312 103.76 34.224 102.992 35.04L101.888 33.72C103.872 31.608 105.52 28.8 106.832 25.296L108.464 25.656C108.128 26.536 107.792 27.376 107.456 28.176H113.096C112.824 27.264 112.512 26.408 112.16 25.608L113.936 25.32C114.256 26.248 114.544 27.2 114.8 28.176H121.88V29.736H114.824V32.136H120.872V33.6H114.824V35.88H120.872V37.368H114.824V39.72H122.144V41.304H105.152V32.304ZM113.144 39.72V37.368H106.88V39.72H113.144ZM113.144 35.88V33.6H106.88V35.88H113.144ZM113.144 32.136V29.736H106.88V32.136H113.144ZM134.72 25.32H136.424V26.616H145.04V28.056H136.424V29.856H146.864V30.648C146.608 31.944 146.256 33.144 145.808 34.248L144.2 33.816C144.568 33.032 144.864 32.208 145.088 31.344H129.608V37.056C129.608 41.072 128.864 44.512 127.376 47.376L126.128 46.248C127.344 43.816 127.976 40.768 128.024 37.104V29.856H134.72V25.32ZM142.856 32.856L143.072 34.272L136.4 35.064V36.168C136.4 36.52 136.712 36.696 137.336 36.696H142.544C142.992 36.696 143.32 36.608 143.528 36.432C143.784 36.24 143.944 35.64 144.008 34.632L145.616 35.136C145.472 36.544 145.176 37.408 144.728 37.728C144.296 37.984 143.672 38.112 142.856 38.112H136.88C135.472 38.112 134.768 37.568 134.768 36.48V35.256L130.736 35.736L130.52 34.32L134.768 33.816V31.944H136.4V33.624L142.856 32.856ZM132.944 40.872C132.448 43.176 131.792 45.136 130.976 46.752L129.56 45.864C130.376 44.232 130.976 42.456 131.36 40.536L132.944 40.872ZM138.536 38.664C139.56 39.944 140.424 41.256 141.128 42.6L139.688 43.248C138.936 41.712 138.08 40.344 137.12 39.144L138.536 38.664ZM145.088 39.864C146.192 41.672 147.128 43.56 147.896 45.528L146.408 46.2C145.56 44.024 144.608 42.08 143.552 40.368L145.088 39.864ZM136.352 47.256C134.912 47.256 134.192 46.504 134.192 45V39.984H135.896V44.64C135.896 45.296 136.224 45.624 136.88 45.624H140.936C141.368 45.624 141.672 45.512 141.848 45.288C142.072 45 142.232 44.152 142.328 42.744L143.888 43.248C143.744 45.136 143.456 46.296 143.024 46.728C142.624 47.08 142.032 47.256 141.248 47.256H136.352ZM161.048 25.08C161.448 25.944 161.824 26.872 162.176 27.864H170.6V29.52H166.424C166.12 30.848 165.728 32.064 165.248 33.168H171.104V34.824H153.872V38.376C153.776 42.136 152.904 45.136 151.256 47.376L149.936 46.2C151.344 44.312 152.072 41.704 152.12 38.376V33.168H157.04L156.032 29.52H151.64V27.864H160.424C160.12 27.048 159.728 26.224 159.248 25.392L161.048 25.08ZM158.744 33.168H163.592C164.152 31.968 164.544 30.752 164.768 29.52H157.736L158.744 33.168ZM178.784 31.536C177.824 33.712 176.6 35.544 175.112 37.032L174.008 35.616C176.28 33.248 177.808 30.064 178.592 26.064L180.344 26.376C180.088 27.608 179.776 28.768 179.408 29.856H184.544V25.584H186.296V29.856H194.192V31.536H186.296V37.08H193.712V38.76H186.296V44.856H195.728V46.584H174.584V44.856H184.544V38.76H177.488V37.08H184.544V31.536H178.784ZM200.36 26.304H207.68V32.136H200.36V26.304ZM206.096 30.672V27.792H201.92V30.672H206.096ZM210.344 26.304H217.808V32.136H210.344V26.304ZM216.248 30.672V27.792H211.928V30.672H216.248ZM198.416 34.536H206.504C206.936 33.944 207.304 33.296 207.608 32.592L209.264 32.76C209.072 33.256 208.776 33.848 208.376 34.536H214.568C214.216 33.912 213.856 33.368 213.488 32.904L214.952 32.424C215.448 33.08 215.888 33.784 216.272 34.536H219.584V36.072H213.104C214.656 37.544 216.984 38.704 220.088 39.552L219.392 41.016C219.024 40.904 218.464 40.704 217.712 40.416V47.424H216.176V46.392H211.688V47.424H210.152V39.864H216.464C214.208 38.824 212.472 37.56 211.256 36.072H207.224C205.896 37.576 204.096 38.84 201.824 39.864H207.848V47.424H206.312V46.392H202.208V47.424H200.696V40.344L198.728 41.016L197.936 39.6C200.976 38.688 203.344 37.512 205.04 36.072H198.416V34.536ZM202.208 44.904H206.312V41.304H202.208V44.904ZM211.688 44.904H216.176V41.304H211.688V44.904ZM227.84 27.48H230.168C230.424 26.776 230.608 26.064 230.72 25.344L232.424 25.584C232.28 26.24 232.088 26.872 231.848 27.48H234.992V34.224C236.352 31.984 237.296 29.04 237.824 25.392L239.432 25.68C239.192 27.12 238.904 28.472 238.568 29.736H243.776V31.368H242.408C242.312 35.288 241.664 38.616 240.464 41.352C241.504 43.24 242.736 44.696 244.16 45.72L243.176 47.184C241.832 46.128 240.656 44.736 239.648 43.008C238.688 44.704 237.488 46.144 236.048 47.328L235.112 45.816C236.632 44.632 237.848 43.128 238.76 41.304C237.848 39.448 237.104 37.256 236.528 34.728C236.128 35.352 235.808 35.832 235.568 36.168L234.608 34.992H231.536L232.256 37.032H235.664V38.496H230.864C230.768 39.168 230.672 39.792 230.576 40.368H234.92C234.92 43.488 234.728 45.4 234.344 46.104C233.976 46.76 233.288 47.112 232.28 47.16H230.792L230.36 45.672H231.848C232.472 45.624 232.856 45.392 233 44.976C233.128 44.56 233.216 43.496 233.264 41.784H230.288C230.096 42.568 229.92 43.184 229.76 43.632C229.184 45.04 228.328 46.296 227.192 47.4L226.16 46.056C227.088 45.128 227.8 44.072 228.296 42.888C228.728 41.784 229.064 40.32 229.304 38.496H226.904V37.032H230.624L229.904 34.992H227.84V27.48ZM237.512 32.784C238.04 35.344 238.712 37.568 239.528 39.456C240.328 37.184 240.768 34.488 240.848 31.368H238.064L237.512 32.784ZM233.48 33.72V31.944H229.352V33.72H233.48ZM229.352 30.648H233.48V28.776H229.352V30.648ZM223.304 25.848C224.696 26.888 225.936 28 227.024 29.184L225.896 30.264C225.016 29.208 223.784 28.096 222.2 26.928L223.304 25.848ZM222.968 31.68C224.344 32.832 225.512 33.976 226.472 35.112L225.296 36.288C224.432 35.152 223.272 33.984 221.816 32.784L222.968 31.68ZM226.64 39.336C225.728 42.184 224.736 44.8 223.664 47.184L222.176 46.536C223.264 44.12 224.264 41.528 225.176 38.76L226.64 39.336ZM252.392 32.376H259.256V28.608C257.352 28.784 255.408 28.872 253.424 28.872L252.896 27.312C258.128 27.312 262.48 26.72 265.952 25.536L266.792 27.024C265.112 27.632 263.184 28.088 261.008 28.392V32.376H267.92V34.032H261.008V37.752H266.408V47.376H264.704V46.104H255.704V47.424H254V37.752H259.256V34.032H252.392V32.376ZM255.704 44.472H264.704V39.384H255.704V44.472ZM248 25.728C249.632 26.768 251.032 27.824 252.2 28.896L251 30.072C250.04 29.112 248.648 28.04 246.824 26.856L248 25.728ZM247.472 31.464C249.152 32.664 250.544 33.848 251.648 35.016L250.448 36.216C249.424 35.064 248.032 33.872 246.272 32.64L247.472 31.464ZM251.912 38.4C250.84 41.536 249.68 44.44 248.432 47.112L246.704 46.368C248.128 43.488 249.344 40.624 250.352 37.776L251.912 38.4ZM280.112 25.296H281.888V29.616H290.504V40.896H288.776V39.384H281.888V47.568H280.112V39.384H273.248V40.896H271.52V29.616H280.112V25.296ZM273.248 37.704H280.112V31.296H273.248V37.704ZM281.888 37.704H288.776V31.296H281.888V37.704Z" fill="white"/>
<path d="M112.28 62.66H113.66V63.96H118.62V65.14H113.66V66.48H117.9V67.64H113.66V69H119.12V70.2H106.88V69H112.28V67.64H108.24V66.48H112.28V65.14H107.44V63.96H112.28V62.66ZM109.78 75.24V76.7H116.24V75.24H109.78ZM116.24 74.12V72.64H109.78V74.12H116.24ZM109.78 77.82V81H108.4V71.46H117.62V79.26C117.62 80.34 117.053 80.88 115.92 80.88H114.24L113.9 79.6L115.5 79.66C115.993 79.66 116.24 79.4267 116.24 78.96V77.82H109.78ZM103.26 62.88C104.567 63.8533 105.693 64.8667 106.64 65.92L105.66 66.92C104.82 65.96 103.68 64.94 102.24 63.86L103.26 62.88ZM100.84 68.78H105.08V77.56C105.6 77.0667 106.233 76.44 106.98 75.68L107.36 77.2C106.253 78.3467 105.067 79.38 103.8 80.3L103.24 79.02C103.547 78.74 103.7 78.4333 103.7 78.1V70.16H100.84V68.78ZM127.7 72.36H135.3V70.34H136.74V72.36H139.16V73.74H136.74V79.14C136.74 80.34 136.1 80.94 134.82 80.94H132.16L131.86 79.56C132.82 79.6267 133.64 79.66 134.32 79.66C134.973 79.66 135.3 79.3667 135.3 78.78V73.74H127.7V72.36ZM125.06 62.66H126.52V80.98H125.06V74.36C123.767 75.5733 122.547 76.56 121.4 77.32L120.76 75.94C121.867 75.2733 123.3 74.1667 125.06 72.62V62.66ZM130.24 74.56C131.333 75.7467 132.187 76.8133 132.8 77.76L131.68 78.56C131.067 77.56 130.233 76.4467 129.18 75.22L130.24 74.56ZM131.64 65.46C130.72 66.5133 129.573 67.4 128.2 68.12L127.28 67C129.453 65.92 130.92 64.4667 131.68 62.64L133.16 62.92C132.987 63.3067 132.787 63.7133 132.56 64.14H138.4V65.38C137.253 68.3 134.1 70.3533 128.94 71.54L128.22 70.26C129.753 69.9267 131.14 69.5133 132.38 69.02C131.82 68.5 131.187 67.9867 130.48 67.48L131.5 66.7C132.247 67.2333 132.947 67.8133 133.6 68.44C135.093 67.6267 136.173 66.6333 136.84 65.46H131.64ZM122.02 65C122.94 66.32 123.747 67.7733 124.44 69.36L123.18 69.88C122.46 68.2 121.66 66.74 120.78 65.5L122.02 65ZM143.82 62.72H145.24V66.5H147.56V67.88H145.24V69.42C146.187 70.3933 147.167 71.5067 148.18 72.76L147.36 73.98C146.533 72.7133 145.827 71.7067 145.24 70.96V80.98H143.82V70.96C143.18 72.88 142.36 74.62 141.36 76.18L140.74 74.62C142.153 72.6867 143.167 70.44 143.78 67.88H141.38V66.5H143.82V62.72ZM151.04 72.06C150.413 74.8067 149.487 77.22 148.26 79.3L147.02 78.5C148.26 76.4733 149.16 74.2267 149.72 71.76L151.04 72.06ZM156.96 71.66C157.8 73.9133 158.52 76.3267 159.12 78.9L157.82 79.48C157.167 76.72 156.447 74.2533 155.66 72.08L156.96 71.66ZM150.44 80.78L150.16 79.44C151.013 79.4933 151.62 79.52 151.98 79.52C152.527 79.52 152.8 79.2267 152.8 78.64V70.1H147.92V68.72H159.14V70.1H154.24V79C154.24 80.1867 153.653 80.78 152.48 80.78H150.44ZM148.98 63.86H158.1V65.22H148.98V63.86ZM176.08 74.5C175.56 76.18 174.92 77.6733 174.16 78.98H178.46V80.32H161.58V78.98H172.62C173.38 77.6467 174.067 76.0267 174.68 74.12L176.08 74.5ZM165.12 74.36C165.693 75.4133 166.213 76.66 166.68 78.1L165.38 78.44C164.98 77.16 164.46 75.94 163.82 74.78L165.12 74.36ZM169.74 73.96C170.22 75.1733 170.633 76.5 170.98 77.94L169.7 78.28C169.353 76.88 168.927 75.58 168.42 74.38L169.74 73.96ZM164.82 72.04H175.2V73.32H164.82V72.04ZM164.02 65.66C163.487 66.6867 162.9 67.6067 162.26 68.42L161.02 67.64C162.26 66.12 163.16 64.44 163.72 62.6L165.12 62.9C165.013 63.2467 164.84 63.74 164.6 64.38H169.86V65.66H166.98C167.34 66.4467 167.607 67.1 167.78 67.62L166.46 68.1C166.18 67.1933 165.873 66.38 165.54 65.66H164.02ZM172.44 65.66C172.053 66.42 171.667 67.0733 171.28 67.62L170.06 66.84C171.007 65.5467 171.687 64.1333 172.1 62.6L173.48 62.9C173.373 63.2467 173.213 63.74 173 64.38H178.84V65.66H175.66C176.1 66.4067 176.447 67.12 176.7 67.8L175.38 68.28C175.007 67.3467 174.607 66.4733 174.18 65.66H172.44ZM170.46 67.64C172.953 69.4667 175.827 70.9 179.08 71.94L178.38 73.18C175.087 72.06 172.293 70.6067 170 68.82C167.893 70.4867 165.093 71.9333 161.6 73.16L160.92 71.92C164.387 70.7467 167.26 69.32 169.54 67.64H170.46ZM196.18 67.04V76.5H194.74V68.44H185.18V76.54H183.74V67.04H188.8C188.987 66.3733 189.133 65.6467 189.24 64.86H181.2V63.5H198.8V64.86H190.76C190.627 65.74 190.473 66.4667 190.3 67.04H196.18ZM191.32 76.54C193.973 77.4467 196.327 78.5 198.38 79.7L197.5 81.06C195.193 79.62 192.867 78.5067 190.52 77.72L191.32 76.54ZM189.26 69.64H190.74V72.82C190.66 74.9933 189.953 76.7467 188.62 78.08C187.353 79.2933 185.253 80.24 182.32 80.92L181.5 79.64C184.407 79 186.427 78.1533 187.56 77.1C188.627 76.0067 189.193 74.58 189.26 72.82V69.64ZM217.02 72.1V81H215.6V80.1H204.48V81.02H203.06V72.1H217.02ZM204.48 78.76H209.38V76.76H204.48V78.76ZM210.82 78.76H215.6V76.76H210.82V78.76ZM204.48 75.48H209.38V73.44H204.48V75.48ZM210.82 73.44V75.48H215.6V73.44H210.82ZM207.74 65.62C208.62 67.7 209.267 69.5067 209.68 71.04L208.3 71.54C208.087 70.7667 207.9 70.1467 207.74 69.68C206.233 70.3333 204.3 70.9533 201.94 71.54L201.42 70.22C201.86 69.9533 202.08 69.6133 202.08 69.2V64.24C204.627 64 206.78 63.4533 208.54 62.6L209.26 63.8C207.767 64.5867 205.84 65.12 203.48 65.4V69.74C205.133 69.26 206.407 68.8133 207.3 68.4C207.007 67.5467 206.707 66.7533 206.4 66.02L207.74 65.62ZM210.02 64.92V63.5H218C217.96 66.5933 217.813 68.6067 217.56 69.54C217.24 70.6467 216.507 71.22 215.36 71.26C214.893 71.26 214.36 71.24 213.76 71.2L213.34 69.92C214.327 69.9733 214.947 70 215.2 70C215.84 69.96 216.227 69.5333 216.36 68.72C216.467 68.16 216.533 66.8933 216.56 64.92H213.54C213.34 66.4533 213.073 67.6533 212.74 68.52C212.3 69.5733 211.66 70.5333 210.82 71.4L209.98 70.32C210.633 69.6 211.14 68.8 211.5 67.92C211.78 67.1333 212 66.1333 212.16 64.92H210.02ZM227.18 71.98H231.76V68.26H233.22V71.98H238V73.38H233.22V78.9H238.9V80.32H226.36V78.9H231.76V73.38H227.18V71.98ZM223.96 72.86C223.16 73.6867 222.373 74.42 221.6 75.06L220.7 73.88C223.193 71.8267 225.14 69.4667 226.54 66.8H221.4V65.38H227.22C227.66 64.38 228.007 63.4267 228.26 62.52L229.76 62.7C229.44 63.7667 229.127 64.66 228.82 65.38H238.88V66.8H228.18C227.407 68.3733 226.473 69.8467 225.38 71.22V81.06H223.96V72.86ZM244.56 69.72V70.24C244.44 74.6933 243.533 78.26 241.84 80.94L240.78 79.84C242.233 77.5333 243.02 74.3333 243.14 70.24V64.24C248.287 64.1867 252.92 63.7267 257.04 62.86L257.76 64.16C253.92 64.9467 249.52 65.4 244.56 65.52V68.32H258.96V69.72H244.56ZM257.38 72.52V81H255.94V80.06H247.84V81H246.4V72.52H257.38ZM247.84 78.66H255.94V73.9H247.84V78.66ZM276.68 72.68V81.02H275.22V80.02H264.78V81.02H263.32V72.68H276.68ZM264.78 78.64H275.22V74.06H264.78V78.64ZM261.62 69.26C263.38 68.66 265.56 66.4467 268.16 62.62L269.64 63.12C267.84 65.68 266.033 67.7067 264.22 69.2C267.807 69.0533 271.447 68.8067 275.14 68.46C274.327 67.3133 273.547 66.3067 272.8 65.44L274.1 64.82C275.807 66.8067 277.407 69.02 278.9 71.46L277.5 72.14C277.247 71.7133 276.753 70.92 276.02 69.76C271.927 70.1333 267.22 70.42 261.9 70.62L261.62 69.26Z" fill="#D1DEFB"/>
<defs>
<filter id="filter0_ii_3797_96619" x="40.0288" y="69.249" width="14.4638" height="5.21229" filterUnits="userSpaceOnUse" color-interpolation-filters="sRGB">
<feFlood flood-opacity="0" result="BackgroundImageFix"/>
<feBlend mode="normal" in="SourceGraphic" in2="BackgroundImageFix" result="shape"/>
<feColorMatrix in="SourceAlpha" type="matrix" values="0 0 0 0 0 0 0 0 0 0 0 0 0 0 0 0 0 0 127 0" result="hardAlpha"/>
<feOffset dx="0.598345" dy="1.19669"/>
<feGaussianBlur stdDeviation="0.448759"/>
<feComposite in2="hardAlpha" operator="arithmetic" k2="-1" k3="1"/>
<feColorMatrix type="matrix" values="0 0 0 0 1 0 0 0 0 1 0 0 0 0 1 0 0 0 0.5 0"/>
<feBlend mode="normal" in2="shape" result="effect1_innerShadow_3797_96619"/>
<feColorMatrix in="SourceAlpha" type="matrix" values="0 0 0 0 0 0 0 0 0 0 0 0 0 0 0 0 0 0 127 0" result="hardAlpha"/>
<feOffset dx="1.5987" dy="1.5987"/>
<feGaussianBlur stdDeviation="0.532901"/>
<feComposite in2="hardAlpha" operator="arithmetic" k2="-1" k3="1"/>
<feColorMatrix type="matrix" values="0 0 0 0 1 0 0 0 0 1 0 0 0 0 1 0 0 0 0.5 0"/>
<feBlend mode="normal" in2="effect1_innerShadow_3797_96619" result="effect2_innerShadow_3797_96619"/>
</filter>
<filter id="filter1_ii_3797_96619" x="26.1152" y="29.6045" width="38.1683" height="37.601" filterUnits="userSpaceOnUse" color-interpolation-filters="sRGB">
<feFlood flood-opacity="0" result="BackgroundImageFix"/>
<feBlend mode="normal" in="SourceGraphic" in2="BackgroundImageFix" result="shape"/>
<feColorMatrix in="SourceAlpha" type="matrix" values="0 0 0 0 0 0 0 0 0 0 0 0 0 0 0 0 0 0 127 0" result="hardAlpha"/>
<feOffset dx="0.598345" dy="1.19669"/>
<feGaussianBlur stdDeviation="0.448759"/>
<feComposite in2="hardAlpha" operator="arithmetic" k2="-1" k3="1"/>
<feColorMatrix type="matrix" values="0 0 0 0 1 0 0 0 0 1 0 0 0 0 1 0 0 0 0.5 0"/>
<feBlend mode="normal" in2="shape" result="effect1_innerShadow_3797_96619"/>
<feColorMatrix in="SourceAlpha" type="matrix" values="0 0 0 0 0 0 0 0 0 0 0 0 0 0 0 0 0 0 127 0" result="hardAlpha"/>
<feOffset dx="1.5987" dy="1.5987"/>
<feGaussianBlur stdDeviation="0.532901"/>
<feComposite in2="hardAlpha" operator="arithmetic" k2="-1" k3="1"/>
<feColorMatrix type="matrix" values="0 0 0 0 1 0 0 0 0 1 0 0 0 0 1 0 0 0 0.5 0"/>
<feBlend mode="normal" in2="effect1_innerShadow_3797_96619" result="effect2_innerShadow_3797_96619"/>
</filter>
<linearGradient id="paint0_linear_3797_96619" x1="26.1152" y1="25.3371" x2="68.8136" y2="80.2016" gradientUnits="userSpaceOnUse">
<stop stop-color="#EBEBEB"/>
<stop offset="0.697897" stop-color="#A4A4A4"/>
<stop offset="1" stop-color="#CDCDCD"/>
</linearGradient>
<linearGradient id="paint1_linear_3797_96619" x1="106.241" y1="34.5958" x2="105.484" y2="72.8199" gradientUnits="userSpaceOnUse">
<stop stop-color="#B5B5B5"/>
<stop offset="1" stop-color="#787878"/>
</linearGradient>
<linearGradient id="paint2_linear_3797_96619" x1="26.1152" y1="26.0442" x2="59.684" y2="77.7451" gradientUnits="userSpaceOnUse">
<stop stop-color="#EBEBEB"/>
<stop offset="0.697897" stop-color="#A4A4A4"/>
<stop offset="1" stop-color="#CDCDCD"/>
</linearGradient>
<linearGradient id="paint3_linear_3797_96619" x1="106.241" y1="33.7687" x2="105.714" y2="65.6626" gradientUnits="userSpaceOnUse">
<stop stop-color="#B5B5B5"/>
<stop offset="1" stop-color="#787878"/>
</linearGradient>
</defs>
</svg>
