<svg width="486" height="108" viewBox="0 0 486 108" fill="none" xmlns="http://www.w3.org/2000/svg">
<rect width="486" height="108" rx="12" fill="#4078F6"/>
<g filter="url(#filter0_ii_3797_96619)">
<path d="M40.0288 71.3223C40.0288 70.1773 40.9517 69.249 42.0901 69.249H51.3657C52.504 69.249 53.4269 70.1773 53.4269 71.3223C53.4269 72.4674 52.504 73.3956 51.3657 73.3956H42.0901C40.9517 73.3956 40.0288 72.4674 40.0288 71.3223Z" fill="url(#paint0_linear_3797_96619)"/>
</g>
<path d="M40.4285 71.3223C40.4285 70.3958 41.1746 69.6487 42.0901 69.6487H51.3657C52.2811 69.6487 53.0272 70.3958 53.0272 71.3223C53.0272 72.2488 52.2811 72.9959 51.3657 72.9959H42.0901C41.1746 72.9959 40.4285 72.2488 40.4285 71.3223Z" stroke="url(#paint1_linear_3797_96619)" stroke-width="0.799352"/>
<mask id="path-4-inside-1_3797_96619" fill="white">
<path fill-rule="evenodd" clip-rule="evenodd" d="M31.4716 42.2894C30.6764 44.2963 30.2379 46.4946 30.2379 48.7992L30.2377 61.4597C30.2377 61.754 29.9991 61.9926 29.7048 61.9926H28.1765C27.0381 61.9926 26.1152 62.9208 26.1152 64.0659C26.1153 65.211 27.0381 66.1392 28.1765 66.1392H55.1828C60.5 66.1392 63.2176 62.5 63.2176 59.5605L63.2178 48.7992C63.2178 40.9695 58.1559 34.3673 51.2446 32.328C51.0131 32.2597 50.8503 32.0493 50.8503 31.808V31.6778C50.8503 30.5375 49.9228 29.6045 48.7891 29.6045H44.6666C43.5329 29.6045 42.6053 30.5375 42.6053 31.6778V31.808C42.6053 32.0493 42.4429 32.2596 42.2114 32.3279C40.7266 32.766 39.3272 33.4146 38.045 34.2408C35.3435 35.9815 32.5 39.6939 31.4716 42.2894ZM34.3605 48.8049C34.3605 47.6922 34.3605 47.1601 34.7449 45.5815C35.4951 42.4998 38.7845 38.4998 41.0545 37.2676C42.7538 36.3452 44.683 35.8242 46.728 35.8242C53.5584 35.8242 59.0955 41.6359 59.0955 48.8049L59.0954 55.4138V55.414C59.0954 59.5604 59.0954 61.9924 51.0605 61.9924H34.8878C34.5935 61.9924 34.3604 61.7538 34.3604 61.4595L34.3605 48.8049Z"/>
</mask>
<g filter="url(#filter1_ii_3797_96619)">
<path fill-rule="evenodd" clip-rule="evenodd" d="M31.4716 42.2894C30.6764 44.2963 30.2379 46.4946 30.2379 48.7992L30.2377 61.4597C30.2377 61.754 29.9991 61.9926 29.7048 61.9926H28.1765C27.0381 61.9926 26.1152 62.9208 26.1152 64.0659C26.1153 65.211 27.0381 66.1392 28.1765 66.1392H55.1828C60.5 66.1392 63.2176 62.5 63.2176 59.5605L63.2178 48.7992C63.2178 40.9695 58.1559 34.3673 51.2446 32.328C51.0131 32.2597 50.8503 32.0493 50.8503 31.808V31.6778C50.8503 30.5375 49.9228 29.6045 48.7891 29.6045H44.6666C43.5329 29.6045 42.6053 30.5375 42.6053 31.6778V31.808C42.6053 32.0493 42.4429 32.2596 42.2114 32.3279C40.7266 32.766 39.3272 33.4146 38.045 34.2408C35.3435 35.9815 32.5 39.6939 31.4716 42.2894ZM34.3605 48.8049C34.3605 47.6922 34.3605 47.1601 34.7449 45.5815C35.4951 42.4998 38.7845 38.4998 41.0545 37.2676C42.7538 36.3452 44.683 35.8242 46.728 35.8242C53.5584 35.8242 59.0955 41.6359 59.0955 48.8049L59.0954 55.4138V55.414C59.0954 59.5604 59.0954 61.9924 51.0605 61.9924H34.8878C34.5935 61.9924 34.3604 61.7538 34.3604 61.4595L34.3605 48.8049Z" fill="url(#paint2_linear_3797_96619)"/>
</g>
<path d="M63.6174 48.7992V48.7992H62.8181V48.7992H63.6174ZM59.4951 48.8049V48.8049H58.6958V48.8049H59.4951ZM30.2379 48.7992L31.0372 48.7992V48.7992H30.2379ZM31.4716 42.2894L30.7284 41.995L30.7284 41.995L31.4716 42.2894ZM30.2377 61.4597L31.037 61.4597L31.037 61.4597L30.2377 61.4597ZM26.1152 64.0659L25.3159 64.0659L26.1152 64.0659ZM63.2176 59.5605L62.4183 59.5605V59.5605H63.2176ZM63.2178 48.7992L64.0171 48.7992L64.0171 48.7992L63.2178 48.7992ZM51.2446 32.328L51.4708 31.5614L51.4708 31.5614L51.2446 32.328ZM42.2114 32.3279L42.4376 33.0946L42.4376 33.0946L42.2114 32.3279ZM38.045 34.2408L37.612 33.5689L37.612 33.5689L38.045 34.2408ZM34.7449 45.5815L33.9682 45.3924L33.9682 45.3924L34.7449 45.5815ZM34.3605 48.8049L35.1599 48.8049V48.8049H34.3605ZM41.0545 37.2676L40.6732 36.5651L40.6732 36.5651L41.0545 37.2676ZM59.0955 48.8049L59.8948 48.8049L59.8948 48.8049L59.0955 48.8049ZM59.0954 55.4138L58.296 55.4138V55.4138H59.0954ZM34.3604 61.4595L33.561 61.4595L33.561 61.4595L34.3604 61.4595ZM31.0372 48.7992C31.0372 46.5966 31.4563 44.4982 32.2147 42.5839L30.7284 41.995C29.8966 44.0945 29.4385 46.3926 29.4385 48.7992H31.0372ZM31.037 61.4597L31.0372 48.7992L29.4385 48.7992L29.4383 61.4597L31.037 61.4597ZM29.7048 62.7919C30.4406 62.7919 31.037 62.1955 31.037 61.4597L29.4383 61.4597C29.4383 61.3125 29.5576 61.1932 29.7048 61.1932V62.7919ZM28.1765 62.7919H29.7048V61.1932H28.1765V62.7919ZM26.9146 64.0659C26.9146 63.3579 27.4839 62.7919 28.1765 62.7919V61.1932C26.5922 61.1932 25.3158 62.4838 25.3159 64.0659L26.9146 64.0659ZM28.1765 65.3398C27.484 65.3398 26.9146 64.7739 26.9146 64.0659L25.3159 64.0659C25.3159 65.648 26.5923 66.9385 28.1765 66.9385V65.3398ZM55.1828 65.3398H28.1765V66.9385H55.1828V65.3398ZM62.4183 59.5605C62.4183 62.0206 60.0974 65.3398 55.1828 65.3398V66.9385C60.9026 66.9385 64.017 62.9794 64.017 59.5605H62.4183ZM62.4184 48.7992L62.4183 59.5605L64.017 59.5605L64.0171 48.7992L62.4184 48.7992ZM51.0184 33.0947C57.5823 35.0314 62.4184 41.3158 62.4184 48.7992L64.0171 48.7992C64.0171 40.6231 58.7296 33.7031 51.4708 31.5614L51.0184 33.0947ZM50.051 31.808C50.051 32.4164 50.4595 32.9298 51.0184 33.0947L51.4708 31.5614C51.5668 31.5897 51.6497 31.6822 51.6497 31.808H50.051ZM50.051 31.6778V31.808H51.6497V31.6778H50.051ZM48.7891 30.4038C49.4769 30.4038 50.051 30.9745 50.051 31.6778H51.6497C51.6497 30.1004 50.3686 28.8051 48.7891 28.8051V30.4038ZM44.6666 30.4038H48.7891V28.8051H44.6666V30.4038ZM43.4047 31.6778C43.4047 30.9745 43.9788 30.4038 44.6666 30.4038V28.8051C43.087 28.8051 41.806 30.1004 41.806 31.6778H43.4047ZM43.4047 31.808V31.6778H41.806V31.808H43.4047ZM42.4376 33.0946C42.9972 32.9295 43.4047 32.4158 43.4047 31.808H41.806C41.806 31.6829 41.8886 31.5898 41.9852 31.5612L42.4376 33.0946ZM38.4779 34.9128C39.6976 34.1269 41.0276 33.5106 42.4376 33.0946L41.9852 31.5612C40.4256 32.0214 38.9567 32.7024 37.612 33.5689L38.4779 34.9128ZM32.2147 42.5839C32.6911 41.3817 33.6105 39.8734 34.7548 38.4442C35.8992 37.0149 37.2236 35.721 38.4779 34.9128L37.612 33.5689C36.1648 34.5014 34.7167 35.934 33.5069 37.445C32.297 38.956 31.2805 40.6017 30.7284 41.995L32.2147 42.5839ZM33.9682 45.3924C33.5647 47.0497 33.5612 47.6485 33.5612 48.8049H35.1599C35.1599 47.7358 35.1564 47.2704 35.5215 45.7705L33.9682 45.3924ZM40.6732 36.5651C39.4011 37.2556 37.9313 38.6592 36.6993 40.2396C35.4647 41.8233 34.3809 43.6973 33.9682 45.3924L35.5215 45.7705C35.8591 44.384 36.795 42.7171 37.9602 41.2225C39.1281 39.7243 40.438 38.5118 41.4359 37.9701L40.6732 36.5651ZM46.728 35.0249C44.5452 35.0249 42.4855 35.5814 40.6732 36.5651L41.4359 37.9701C43.0222 37.1091 44.8207 36.6236 46.728 36.6236V35.0249ZM59.8948 48.8049C59.8948 41.2313 54.0359 35.0249 46.728 35.0249V36.6236C53.0809 36.6236 58.2961 42.0404 58.2961 48.8049L59.8948 48.8049ZM59.8947 55.4139L59.8948 48.8049L58.2961 48.8049L58.296 55.4138L59.8947 55.4139ZM59.8947 55.414V55.4138H58.296V55.414H59.8947ZM51.0605 62.7918C55.0742 62.7918 57.4262 62.2047 58.6876 60.7901C59.3276 60.0724 59.6203 59.2144 59.7598 58.3134C59.8966 57.4292 59.8947 56.4329 59.8947 55.414H58.296C58.296 56.4683 58.2941 57.3309 58.1799 58.0689C58.0682 58.7901 57.8587 59.3175 57.4944 59.7261C56.7471 60.5641 55.0816 61.193 51.0605 61.193V62.7918ZM34.8878 62.7918H51.0605V61.193H34.8878V62.7918ZM33.561 61.4595C33.561 62.1845 34.1414 62.7918 34.8878 62.7918V61.193C35.0456 61.193 35.1597 61.3231 35.1597 61.4595L33.561 61.4595ZM33.5612 48.8049L33.561 61.4595L35.1597 61.4595L35.1599 48.8049L33.5612 48.8049Z" fill="url(#paint3_linear_3797_96619)" mask="url(#path-4-inside-1_3797_96619)"/>
<path d="M106.472 42.864C105.672 44.64 104.752 46.184 103.712 47.496L102.32 46.512C103.36 45.344 104.256 43.888 105.008 42.144L106.472 42.864ZM110.384 42.552C110.864 43.864 111.304 45.352 111.704 47.016L110 47.4C109.664 45.672 109.256 44.168 108.776 42.888L110.384 42.552ZM115.376 42.336C116.064 43.792 116.664 45.336 117.176 46.968L115.496 47.352C115 45.544 114.432 43.992 113.792 42.696L115.376 42.336ZM120.392 42.096C121.688 43.712 122.704 45.152 123.44 46.416L122 47.424C121.296 46.112 120.296 44.624 119 42.96L120.392 42.096ZM105.152 32.304C104.48 33.312 103.76 34.224 102.992 35.04L101.888 33.72C103.872 31.608 105.52 28.8 106.832 25.296L108.464 25.656C108.128 26.536 107.792 27.376 107.456 28.176H113.096C112.824 27.264 112.512 26.408 112.16 25.608L113.936 25.32C114.256 26.248 114.544 27.2 114.8 28.176H121.88V29.736H114.824V32.136H120.872V33.6H114.824V35.88H120.872V37.368H114.824V39.72H122.144V41.304H105.152V32.304ZM113.144 39.72V37.368H106.88V39.72H113.144ZM113.144 35.88V33.6H106.88V35.88H113.144ZM113.144 32.136V29.736H106.88V32.136H113.144ZM134.72 25.32H136.424V26.616H145.04V28.056H136.424V29.856H146.864V30.648C146.608 31.944 146.256 33.144 145.808 34.248L144.2 33.816C144.568 33.032 144.864 32.208 145.088 31.344H129.608V37.056C129.608 41.072 128.864 44.512 127.376 47.376L126.128 46.248C127.344 43.816 127.976 40.768 128.024 37.104V29.856H134.72V25.32ZM142.856 32.856L143.072 34.272L136.4 35.064V36.168C136.4 36.52 136.712 36.696 137.336 36.696H142.544C142.992 36.696 143.32 36.608 143.528 36.432C143.784 36.24 143.944 35.64 144.008 34.632L145.616 35.136C145.472 36.544 145.176 37.408 144.728 37.728C144.296 37.984 143.672 38.112 142.856 38.112H136.88C135.472 38.112 134.768 37.568 134.768 36.48V35.256L130.736 35.736L130.52 34.32L134.768 33.816V31.944H136.4V33.624L142.856 32.856ZM132.944 40.872C132.448 43.176 131.792 45.136 130.976 46.752L129.56 45.864C130.376 44.232 130.976 42.456 131.36 40.536L132.944 40.872ZM138.536 38.664C139.56 39.944 140.424 41.256 141.128 42.6L139.688 43.248C138.936 41.712 138.08 40.344 137.12 39.144L138.536 38.664ZM145.088 39.864C146.192 41.672 147.128 43.56 147.896 45.528L146.408 46.2C145.56 44.024 144.608 42.08 143.552 40.368L145.088 39.864ZM136.352 47.256C134.912 47.256 134.192 46.504 134.192 45V39.984H135.896V44.64C135.896 45.296 136.224 45.624 136.88 45.624H140.936C141.368 45.624 141.672 45.512 141.848 45.288C142.072 45 142.232 44.152 142.328 42.744L143.888 43.248C143.744 45.136 143.456 46.296 143.024 46.728C142.624 47.08 142.032 47.256 141.248 47.256H136.352ZM161.048 25.08C161.448 25.944 161.824 26.872 162.176 27.864H170.6V29.52H166.424C166.12 30.848 165.728 32.064 165.248 33.168H171.104V34.824H153.872V38.376C153.776 42.136 152.904 45.136 151.256 47.376L149.936 46.2C151.344 44.312 152.072 41.704 152.12 38.376V33.168H157.04L156.032 29.52H151.64V27.864H160.424C160.12 27.048 159.728 26.224 159.248 25.392L161.048 25.08ZM158.744 33.168H163.592C164.152 31.968 164.544 30.752 164.768 29.52H157.736L158.744 33.168ZM178.784 31.536C177.824 33.712 176.6 35.544 175.112 37.032L174.008 35.616C176.28 33.248 177.808 30.064 178.592 26.064L180.344 26.376C180.088 27.608 179.776 28.768 179.408 29.856H184.544V25.584H186.296V29.856H194.192V31.536H186.296V37.08H193.712V38.76H186.296V44.856H195.728V46.584H174.584V44.856H184.544V38.76H177.488V37.08H184.544V31.536H178.784ZM200.36 26.304H207.68V32.136H200.36V26.304ZM206.096 30.672V27.792H201.92V30.672H206.096ZM210.344 26.304H217.808V32.136H210.344V26.304ZM216.248 30.672V27.792H211.928V30.672H216.248ZM198.416 34.536H206.504C206.936 33.944 207.304 33.296 207.608 32.592L209.264 32.76C209.072 33.256 208.776 33.848 208.376 34.536H214.568C214.216 33.912 213.856 33.368 213.488 32.904L214.952 32.424C215.448 33.08 215.888 33.784 216.272 34.536H219.584V36.072H213.104C214.656 37.544 216.984 38.704 220.088 39.552L219.392 41.016C219.024 40.904 218.464 40.704 217.712 40.416V47.424H216.176V46.392H211.688V47.424H210.152V39.864H216.464C214.208 38.824 212.472 37.56 211.256 36.072H207.224C205.896 37.576 204.096 38.84 201.824 39.864H207.848V47.424H206.312V46.392H202.208V47.424H200.696V40.344L198.728 41.016L197.936 39.6C200.976 38.688 203.344 37.512 205.04 36.072H198.416V34.536ZM202.208 44.904H206.312V41.304H202.208V44.904ZM211.688 44.904H216.176V41.304H211.688V44.904ZM227.84 27.48H230.168C230.424 26.776 230.608 26.064 230.72 25.344L232.424 25.584C232.28 26.24 232.088 26.872 231.848 27.48H234.992V34.224C236.352 31.984 237.296 29.04 237.824 25.392L239.432 25.68C239.192 27.12 238.904 28.472 238.568 29.736H243.776V31.368H242.408C242.312 35.288 241.664 38.616 240.464 41.352C241.504 43.24 242.736 44.696 244.16 45.72L243.176 47.184C241.832 46.128 240.656 44.736 239.648 43.008C238.688 44.704 237.488 46.144 236.048 47.328L235.112 45.816C236.632 44.632 237.848 43.128 238.76 41.304C237.848 39.448 237.104 37.256 236.528 34.728C236.128 35.352 235.808 35.832 235.568 36.168L234.608 34.992H231.536L232.256 37.032H235.664V38.496H230.864C230.768 39.168 230.672 39.792 230.576 40.368H234.92C234.92 43.488 234.728 45.4 234.344 46.104C233.976 46.76 233.288 47.112 232.28 47.16H230.792L230.36 45.672H231.848C232.472 45.624 232.856 45.392 233 44.976C233.128 44.56 233.216 43.496 233.264 41.784H230.288C230.096 42.568 229.92 43.184 229.76 43.632C229.184 45.04 228.328 46.296 227.192 47.4L226.16 46.056C227.088 45.128 227.8 44.072 228.296 42.888C228.728 41.784 229.064 40.32 229.304 38.496H226.904V37.032H230.624L229.904 34.992H227.84V27.48ZM237.512 32.784C238.04 35.344 238.712 37.568 239.528 39.456C240.328 37.184 240.768 34.488 240.848 31.368H238.064L237.512 32.784ZM233.48 33.72V31.944H229.352V33.72H233.48ZM229.352 30.648H233.48V28.776H229.352V30.648ZM223.304 25.848C224.696 26.888 225.936 28 227.024 29.184L225.896 30.264C225.016 29.208 223.784 28.096 222.2 26.928L223.304 25.848ZM222.968 31.68C224.344 32.832 225.512 33.976 226.472 35.112L225.296 36.288C224.432 35.152 223.272 33.984 221.816 32.784L222.968 31.68ZM226.64 39.336C225.728 42.184 224.736 44.8 223.664 47.184L222.176 46.536C223.264 44.12 224.264 41.528 225.176 38.76L226.64 39.336ZM252.392 32.376H259.256V28.608C257.352 28.784 255.408 28.872 253.424 28.872L252.896 27.312C258.128 27.312 262.48 26.72 265.952 25.536L266.792 27.024C265.112 27.632 263.184 28.088 261.008 28.392V32.376H267.92V34.032H261.008V37.752H266.408V47.376H264.704V46.104H255.704V47.424H254V37.752H259.256V34.032H252.392V32.376ZM255.704 44.472H264.704V39.384H255.704V44.472ZM248 25.728C249.632 26.768 251.032 27.824 252.2 28.896L251 30.072C250.04 29.112 248.648 28.04 246.824 26.856L248 25.728ZM247.472 31.464C249.152 32.664 250.544 33.848 251.648 35.016L250.448 36.216C249.424 35.064 248.032 33.872 246.272 32.64L247.472 31.464ZM251.912 38.4C250.84 41.536 249.68 44.44 248.432 47.112L246.704 46.368C248.128 43.488 249.344 40.624 250.352 37.776L251.912 38.4ZM280.112 25.296H281.888V29.616H290.504V40.896H288.776V39.384H281.888V47.568H280.112V39.384H273.248V40.896H271.52V29.616H280.112V25.296ZM273.248 37.704H280.112V31.296H273.248V37.704ZM281.888 37.704H288.776V31.296H281.888V37.704Z" fill="white"/>
<path d="M101.5 80.82L101.2 79.42C101.92 79.4733 102.44 79.5 102.76 79.5C103.28 79.5 103.54 79.2267 103.54 78.68V73.84C102.527 74.1867 101.707 74.4533 101.08 74.64L100.72 73.2C101.68 72.9733 102.62 72.7133 103.54 72.42V67.9H101.1V66.5H103.54V62.72H105.02V66.5H107.08V67.9H105.02V71.86C105.66 71.5933 106.38 71.26 107.18 70.86V72.32C106.46 72.6533 105.74 72.9733 105.02 73.28V79.04C105.02 80.2267 104.433 80.82 103.26 80.82H101.5ZM112.54 62.66H114.02V64.8H117.98V66.1H114.02V68.5H118.82V69.86H107.88V68.5H112.54V66.1H108.62V64.8H112.54V62.66ZM107.74 72.24H114.9V70.74H116.34V72.24H119.08V73.62H116.34V79.04C116.34 80.24 115.753 80.84 114.58 80.84H111.88L111.56 79.46C112.733 79.5133 113.573 79.54 114.08 79.54C114.627 79.54 114.9 79.2533 114.9 78.68V73.62H107.74V72.24ZM109.58 74.44C110.7 75.6 111.6 76.6467 112.28 77.58L111.14 78.4C110.513 77.44 109.62 76.3533 108.46 75.14L109.58 74.44ZM127.2 78.14C125.453 78.86 123.487 79.44 121.3 79.88L121.12 78.48C123.453 78.0533 125.48 77.4867 127.2 76.78V78.14ZM125.52 63.2C124.6 65.6933 123.66 67.6867 122.7 69.18C123.407 69.1 124.233 68.9667 125.18 68.78L126.28 66.68L127.6 67.18C125.853 70.3933 124.42 72.68 123.3 74.04C124.527 73.8 125.733 73.46 126.92 73.02V74.32C125.107 74.9333 123.32 75.3667 121.56 75.62L121.16 74.3C121.413 74.22 121.633 74.0867 121.82 73.9C122.553 73.1267 123.433 71.86 124.46 70.1C123.78 70.22 122.747 70.3867 121.36 70.6L121 69.28C121.213 69.2 121.413 69.0267 121.6 68.76C122.587 66.96 123.44 64.9267 124.16 62.66L125.52 63.2ZM128.62 63.94H132.64V62.62H134.04V63.94H138.34V65.24H134.04V67.06H138.62V67.96C138.34 69.24 137.96 70.5 137.48 71.74L136.1 71.34C136.5 70.5 136.847 69.5133 137.14 68.38H128V67.06H132.64V65.24H128.62V63.94ZM127.56 74.26H133.1C133.153 73.82 133.193 73.3667 133.22 72.9V69.2H134.62V72.9C134.607 73.22 134.573 73.6733 134.52 74.26H139.18V75.58H134.26C134.153 75.9533 134.047 76.2867 133.94 76.58C135.913 77.5133 137.707 78.5933 139.32 79.82L138.52 81.06C136.84 79.66 135.14 78.52 133.42 77.64L133.04 78.2C132.053 79.4267 130.467 80.3867 128.28 81.08L127.48 79.82C129.613 79.18 131.1 78.32 131.94 77.24C132.3 76.7467 132.58 76.1933 132.78 75.58H127.56V74.26ZM128.34 71C129.393 71.4933 130.4 72.14 131.36 72.94L130.68 74C129.68 73.1333 128.673 72.46 127.66 71.98L128.34 71ZM129.88 68.94C130.867 69.4067 131.807 70.0133 132.7 70.76L132.02 71.78C131.06 70.94 130.133 70.3133 129.24 69.9L129.88 68.94ZM141.66 63.64H158.26V65.04H148.9C147.713 67.04 146.34 68.6667 144.78 69.92C148.1 69.72 151.247 69.3733 154.22 68.88C153.62 68.16 153 67.46 152.36 66.78L153.52 66.04C155.36 67.9867 156.78 69.7 157.78 71.18L156.6 72.02C156.213 71.4333 155.753 70.7867 155.22 70.08C151.207 70.7067 147.013 71.1333 142.64 71.36L142.26 70.1C144.207 68.9933 145.867 67.3067 147.24 65.04H141.66V63.64ZM142.6 74.08H149.26V71.76H150.74V74.08H157.3V75.46H150.74V78.8H158.8V80.2H141.2V78.8H149.26V75.46H142.6V74.08ZM166.2 62.74C167.027 63.82 167.787 64.9533 168.48 66.14L167.18 66.8C166.447 65.4933 165.68 64.3533 164.88 63.38L166.2 62.74ZM175.1 62.94C174.62 64.3933 174.02 65.6867 173.3 66.82H177.42V68.22H170.74V69.16C170.7 70.2667 170.607 71.1933 170.46 71.94H178.58V73.34H171.3C172.287 76.0467 174.873 78.1467 179.06 79.64L178.22 80.98C173.833 79.2067 171.1 76.7933 170.02 73.74C169.633 74.9 169.127 75.9 168.5 76.74C167.127 78.5133 164.907 79.8867 161.84 80.86L161.06 79.6C164.127 78.6133 166.26 77.32 167.46 75.72C167.953 74.9867 168.333 74.1933 168.6 73.34H161.42V71.94H168.96C169.147 71.06 169.247 70.1333 169.26 69.16V68.22H162.56V66.82H171.7C172.433 65.7 173.107 64.28 173.72 62.56L175.1 62.94ZM184.9 70.66V69.26H190.86V66.32H192.3V69.26H195.08V70.66H192.3V77.74C192.3 79.02 191.707 79.66 190.52 79.66H188.48L188.16 78.28C188.867 78.3467 189.487 78.38 190.02 78.38C190.58 78.38 190.86 78.0533 190.86 77.4V72.18C189.62 74.2733 187.68 76.12 185.04 77.72L184.28 76.48C187.4 74.76 189.48 72.82 190.52 70.66H184.9ZM194.3 80.84L193.94 79.5L195.68 79.54C196.293 79.54 196.6 79.1533 196.6 78.38V65H188.88V63.66H198V78.78C198 80.1533 197.327 80.84 195.98 80.84H194.3ZM181.98 65.98H183.38V81.02H181.98V65.98ZM184.88 62.52C185.853 63.64 186.68 64.8067 187.36 66.02L186.06 66.7C185.273 65.3 184.44 64.1 183.56 63.1L184.88 62.52ZM203.82 62.72H205.24V66.5H207.56V67.88H205.24V69.42C206.187 70.3933 207.167 71.5067 208.18 72.76L207.36 73.98C206.533 72.7133 205.827 71.7067 205.24 70.96V80.98H203.82V70.96C203.18 72.88 202.36 74.62 201.36 76.18L200.74 74.62C202.153 72.6867 203.167 70.44 203.78 67.88H201.38V66.5H203.82V62.72ZM211.04 72.06C210.413 74.8067 209.487 77.22 208.26 79.3L207.02 78.5C208.26 76.4733 209.16 74.2267 209.72 71.76L211.04 72.06ZM216.96 71.66C217.8 73.9133 218.52 76.3267 219.12 78.9L217.82 79.48C217.167 76.72 216.447 74.2533 215.66 72.08L216.96 71.66ZM210.44 80.78L210.16 79.44C211.013 79.4933 211.62 79.52 211.98 79.52C212.527 79.52 212.8 79.2267 212.8 78.64V70.1H207.92V68.72H219.14V70.1H214.24V79C214.24 80.1867 213.653 80.78 212.48 80.78H210.44ZM208.98 63.86H218.1V65.22H208.98V63.86ZM236.08 74.5C235.56 76.18 234.92 77.6733 234.16 78.98H238.46V80.32H221.58V78.98H232.62C233.38 77.6467 234.067 76.0267 234.68 74.12L236.08 74.5ZM225.12 74.36C225.693 75.4133 226.213 76.66 226.68 78.1L225.38 78.44C224.98 77.16 224.46 75.94 223.82 74.78L225.12 74.36ZM229.74 73.96C230.22 75.1733 230.633 76.5 230.98 77.94L229.7 78.28C229.353 76.88 228.927 75.58 228.42 74.38L229.74 73.96ZM224.82 72.04H235.2V73.32H224.82V72.04ZM224.02 65.66C223.487 66.6867 222.9 67.6067 222.26 68.42L221.02 67.64C222.26 66.12 223.16 64.44 223.72 62.6L225.12 62.9C225.013 63.2467 224.84 63.74 224.6 64.38H229.86V65.66H226.98C227.34 66.4467 227.607 67.1 227.78 67.62L226.46 68.1C226.18 67.1933 225.873 66.38 225.54 65.66H224.02ZM232.44 65.66C232.053 66.42 231.667 67.0733 231.28 67.62L230.06 66.84C231.007 65.5467 231.687 64.1333 232.1 62.6L233.48 62.9C233.373 63.2467 233.213 63.74 233 64.38H238.84V65.66H235.66C236.1 66.4067 236.447 67.12 236.7 67.8L235.38 68.28C235.007 67.3467 234.607 66.4733 234.18 65.66H232.44ZM230.46 67.64C232.953 69.4667 235.827 70.9 239.08 71.94L238.38 73.18C235.087 72.06 232.293 70.6067 230 68.82C227.893 70.4867 225.093 71.9333 221.6 73.16L220.92 71.92C224.387 70.7467 227.26 69.32 229.54 67.64H230.46ZM256.18 67.04V76.5H254.74V68.44H245.18V76.54H243.74V67.04H248.8C248.987 66.3733 249.133 65.6467 249.24 64.86H241.2V63.5H258.8V64.86H250.76C250.627 65.74 250.473 66.4667 250.3 67.04H256.18ZM251.32 76.54C253.973 77.4467 256.327 78.5 258.38 79.7L257.5 81.06C255.193 79.62 252.867 78.5067 250.52 77.72L251.32 76.54ZM249.26 69.64H250.74V72.82C250.66 74.9933 249.953 76.7467 248.62 78.08C247.353 79.2933 245.253 80.24 242.32 80.92L241.5 79.64C244.407 79 246.427 78.1533 247.56 77.1C248.627 76.0067 249.193 74.58 249.26 72.82V69.64Z" fill="#D1DEFB"/>
<defs>
<filter id="filter0_ii_3797_96619" x="40.0288" y="69.249" width="14.4638" height="5.21229" filterUnits="userSpaceOnUse" color-interpolation-filters="sRGB">
<feFlood flood-opacity="0" result="BackgroundImageFix"/>
<feBlend mode="normal" in="SourceGraphic" in2="BackgroundImageFix" result="shape"/>
<feColorMatrix in="SourceAlpha" type="matrix" values="0 0 0 0 0 0 0 0 0 0 0 0 0 0 0 0 0 0 127 0" result="hardAlpha"/>
<feOffset dx="0.598345" dy="1.19669"/>
<feGaussianBlur stdDeviation="0.448759"/>
<feComposite in2="hardAlpha" operator="arithmetic" k2="-1" k3="1"/>
<feColorMatrix type="matrix" values="0 0 0 0 1 0 0 0 0 1 0 0 0 0 1 0 0 0 0.5 0"/>
<feBlend mode="normal" in2="shape" result="effect1_innerShadow_3797_96619"/>
<feColorMatrix in="SourceAlpha" type="matrix" values="0 0 0 0 0 0 0 0 0 0 0 0 0 0 0 0 0 0 127 0" result="hardAlpha"/>
<feOffset dx="1.5987" dy="1.5987"/>
<feGaussianBlur stdDeviation="0.532901"/>
<feComposite in2="hardAlpha" operator="arithmetic" k2="-1" k3="1"/>
<feColorMatrix type="matrix" values="0 0 0 0 1 0 0 0 0 1 0 0 0 0 1 0 0 0 0.5 0"/>
<feBlend mode="normal" in2="effect1_innerShadow_3797_96619" result="effect2_innerShadow_3797_96619"/>
</filter>
<filter id="filter1_ii_3797_96619" x="26.1152" y="29.6045" width="38.1683" height="37.601" filterUnits="userSpaceOnUse" color-interpolation-filters="sRGB">
<feFlood flood-opacity="0" result="BackgroundImageFix"/>
<feBlend mode="normal" in="SourceGraphic" in2="BackgroundImageFix" result="shape"/>
<feColorMatrix in="SourceAlpha" type="matrix" values="0 0 0 0 0 0 0 0 0 0 0 0 0 0 0 0 0 0 127 0" result="hardAlpha"/>
<feOffset dx="0.598345" dy="1.19669"/>
<feGaussianBlur stdDeviation="0.448759"/>
<feComposite in2="hardAlpha" operator="arithmetic" k2="-1" k3="1"/>
<feColorMatrix type="matrix" values="0 0 0 0 1 0 0 0 0 1 0 0 0 0 1 0 0 0 0.5 0"/>
<feBlend mode="normal" in2="shape" result="effect1_innerShadow_3797_96619"/>
<feColorMatrix in="SourceAlpha" type="matrix" values="0 0 0 0 0 0 0 0 0 0 0 0 0 0 0 0 0 0 127 0" result="hardAlpha"/>
<feOffset dx="1.5987" dy="1.5987"/>
<feGaussianBlur stdDeviation="0.532901"/>
<feComposite in2="hardAlpha" operator="arithmetic" k2="-1" k3="1"/>
<feColorMatrix type="matrix" values="0 0 0 0 1 0 0 0 0 1 0 0 0 0 1 0 0 0 0.5 0"/>
<feBlend mode="normal" in2="effect1_innerShadow_3797_96619" result="effect2_innerShadow_3797_96619"/>
</filter>
<linearGradient id="paint0_linear_3797_96619" x1="26.1152" y1="25.3371" x2="68.8136" y2="80.2016" gradientUnits="userSpaceOnUse">
<stop stop-color="#EBEBEB"/>
<stop offset="0.697897" stop-color="#A4A4A4"/>
<stop offset="1" stop-color="#CDCDCD"/>
</linearGradient>
<linearGradient id="paint1_linear_3797_96619" x1="106.241" y1="34.5958" x2="105.484" y2="72.8199" gradientUnits="userSpaceOnUse">
<stop stop-color="#B5B5B5"/>
<stop offset="1" stop-color="#787878"/>
</linearGradient>
<linearGradient id="paint2_linear_3797_96619" x1="26.1152" y1="26.0442" x2="59.684" y2="77.7451" gradientUnits="userSpaceOnUse">
<stop stop-color="#EBEBEB"/>
<stop offset="0.697897" stop-color="#A4A4A4"/>
<stop offset="1" stop-color="#CDCDCD"/>
</linearGradient>
<linearGradient id="paint3_linear_3797_96619" x1="106.241" y1="33.7687" x2="105.714" y2="65.6626" gradientUnits="userSpaceOnUse">
<stop stop-color="#B5B5B5"/>
<stop offset="1" stop-color="#787878"/>
</linearGradient>
</defs>
</svg>
