<svg width="728" height="943" viewBox="0 0 728 943" fill="none" xmlns="http://www.w3.org/2000/svg">
<g filter="url(#filter0_dddd_3796_16086)">
<g clip-path="url(#clip0_3796_16086)">
<rect x="115" y="21" width="525" height="652" rx="16" fill="white"/>
<path d="M164.33 91.63C162.51 92.23 160.69 92.77 158.87 93.25V99.82C158.87 101.68 157.95 102.61 156.11 102.61H152.78L152.33 100.54C153.49 100.64 154.51 100.69 155.39 100.69C156.23 100.69 156.65 100.22 156.65 99.28V93.76C154.49 94.24 152.52 94.62 150.74 94.9L150.44 92.71C153.02 92.29 155.09 91.91 156.65 91.57V85.66H150.47V83.59H156.65V79.57C155.21 79.87 153.56 80.15 151.7 80.41L151.25 78.34C155.55 77.86 159.33 76.98 162.59 75.7L163.31 77.74C161.99 78.2 160.51 78.65 158.87 79.09V83.59H166.07C165.89 81.15 165.8 78.47 165.8 75.55H167.96C168 78.71 168.1 81.39 168.26 83.59H177.53V85.66H168.44C168.66 87.88 168.94 89.69 169.28 91.09C169.42 91.69 169.62 92.4 169.88 93.22C171.36 91.42 172.63 89.44 173.69 87.28L175.55 88.27C174.17 91.09 172.54 93.5 170.66 95.5C171.12 96.62 171.56 97.48 171.98 98.08C172.96 99.54 173.73 100.27 174.29 100.27C174.87 100.25 175.4 98.56 175.88 95.2L177.77 96.19C177.05 100.45 176 102.58 174.62 102.58C173.4 102.58 172.1 101.68 170.72 99.88C170.08 99.02 169.53 98.07 169.07 97.03C166.91 98.95 164.46 100.45 161.72 101.53L160.55 99.67C163.45 98.61 166.01 97.03 168.23 94.93C167.87 93.93 167.54 92.83 167.24 91.63C166.82 89.91 166.49 87.92 166.25 85.66H158.87V91.06C160.87 90.54 162.69 90 164.33 89.44V91.63ZM171.26 75.88C173.48 77.36 175.31 78.79 176.75 80.17L175.19 81.73C173.81 80.27 172.02 78.78 169.82 77.26L171.26 75.88ZM191.12 80.68V101.14H189.02V99.43H183.56V102.01H181.46V80.68H184.25C184.83 79.04 185.26 77.3 185.54 75.46L187.7 75.76C187.32 77.66 186.85 79.3 186.29 80.68H191.12ZM183.56 97.42H189.02V90.85H183.56V97.42ZM183.56 88.9H189.02V82.72H183.56V88.9ZM196.34 87.64C198.42 90.02 200.06 92.2 201.26 94.18L199.55 95.38C198.33 93.4 196.68 91.18 194.6 88.72L196.34 87.64ZM206.63 80.71C206.63 90.69 206.48 96.85 206.18 99.19C205.88 101.49 204.48 102.64 201.98 102.64L198.92 102.52L198.41 100.54C199.67 100.6 200.76 100.63 201.68 100.63C203.08 100.63 203.9 99.86 204.14 98.32C204.32 96.64 204.44 91.47 204.5 82.81H196.25C195.39 84.73 194.39 86.44 193.25 87.94L191.96 86.23C194.04 83.33 195.47 79.73 196.25 75.43L198.38 75.7C197.98 77.64 197.54 79.31 197.06 80.71H206.63ZM217.07 75.67H219.2V102.91H217.07V92.47C215.25 94.41 213.2 96.22 210.92 97.9L210.26 95.65C212.76 93.99 215.03 92.08 217.07 89.92V75.67ZM212.69 78.64C213.83 81.02 214.82 83.59 215.66 86.35L213.77 87.22C212.85 84.28 211.81 81.64 210.65 79.3L212.69 78.64ZM232.94 76.09C234.5 77.83 235.74 79.41 236.66 80.83L234.98 82.03C234.14 80.63 232.9 79 231.26 77.14L232.94 76.09ZM229.61 75.58C229.61 77.78 229.58 80.44 229.52 83.56H236.84V85.63H229.76C231.06 92.39 233.77 97.59 237.89 101.23L236.42 102.85C232.64 99.29 230.09 94.77 228.77 89.29C227.51 94.71 225.16 99.26 221.72 102.94L220.28 101.32C224.3 96.82 226.61 91.59 227.21 85.63H221.18V83.56H227.33C227.43 79.7 227.48 77.04 227.48 75.58H229.61ZM255.08 75.43C254.98 76.37 254.79 77.44 254.51 78.64H266.09V80.71H256.49C257.95 84.03 261.67 86.62 267.65 88.48L266.51 90.34C259.87 88 255.8 84.79 254.3 80.71H253.85C253.19 82.47 252.3 83.98 251.18 85.24C251.04 85.38 250.94 85.49 250.88 85.57C252.12 86.43 253.58 87.63 255.26 89.17L253.76 90.67C252.32 89.23 250.88 87.94 249.44 86.8C247.5 88.24 244.7 89.45 241.04 90.43L240.2 88.45C244.44 87.37 247.52 85.83 249.44 83.83C250.24 82.99 250.92 81.95 251.48 80.71H241.64V78.64H252.23C252.57 77.52 252.8 76.38 252.92 75.22L255.08 75.43ZM245.42 93.4C244.7 96.5 243.69 99.2 242.39 101.5L240.53 100.33C241.81 98.09 242.73 95.63 243.29 92.95L245.42 93.4ZM254.66 91.87C255.74 93.47 256.66 95.15 257.42 96.91L255.44 97.78C254.56 95.68 253.67 93.91 252.77 92.47L254.66 91.87ZM263.63 92.5C265.07 94.72 266.33 97.12 267.41 99.7L265.43 100.57C264.27 97.77 262.98 95.3 261.56 93.16L263.63 92.5ZM250.7 102.37C248.68 102.37 247.67 101.37 247.67 99.37V92.86H249.89V98.92C249.89 99.82 250.38 100.27 251.36 100.27H257.75C258.39 100.27 258.84 100.09 259.1 99.73C259.46 99.31 259.7 98.07 259.82 96.01L261.86 96.67C261.66 99.33 261.25 100.97 260.63 101.59C260.07 102.11 259.24 102.37 258.14 102.37H250.7Z" fill="#22262A"/>
<path d="M195.32 625.168C193.16 626 190.816 626.488 188.288 626.632V631H196.136V632.656H193.544V645.472H191.84V632.656H188.288V635.512C188.16 639.656 187.24 642.944 185.528 645.376L184.304 644.08C185.728 642.016 186.496 639.16 186.608 635.512V625.24C189.472 625.192 192.088 624.656 194.456 623.632L195.32 625.168ZM174.464 625.48H179.096C178.696 624.68 178.28 623.984 177.848 623.392L179.624 623.104C180.008 623.824 180.392 624.616 180.776 625.48H185.288V627.064H174.464V625.48ZM174.224 630.928H176.984C176.632 629.984 176.208 629.08 175.712 628.216L177.248 627.664C177.728 628.592 178.152 629.68 178.52 630.928H181.16C181.608 629.936 182.024 628.832 182.408 627.616L183.968 628.144C183.552 629.248 183.136 630.176 182.72 630.928H185.432V632.488H180.8V635.176H185.024V636.76H180.8V643.456C180.8 644.816 180.104 645.496 178.712 645.496H177.416L177.056 643.888C177.488 643.968 177.848 644.008 178.136 644.008C178.76 644.008 179.072 643.688 179.072 643.048V636.76H174.608V635.176H179.072V632.488H174.224V630.928ZM177.872 638.392C177.264 640.776 176.392 642.888 175.256 644.728L173.816 643.816C174.936 642.104 175.76 640.184 176.288 638.056L177.872 638.392ZM183.176 637.888C183.944 639.552 184.504 640.976 184.856 642.16L183.416 642.712C182.936 641.128 182.376 639.648 181.736 638.272L183.176 637.888ZM217.976 633.232H212.84V635.152H218.456V636.568H212.84V638.56H219.152V640.024H212.84V642.4H211.16V640.024H205.712V638.56H211.16V636.568H206.456V635.152H211.16V633.232H206.96V631.792H211.16V629.872H205.784V628.432H211.16V626.536H206.96V625.096H211.16V623.344H212.84V625.096H217.976V628.432H219.584V629.872H217.976V633.232ZM212.84 626.536V628.432H216.296V626.536H212.84ZM212.84 629.872V631.792H216.296V629.872H212.84ZM211.712 643.264C214.048 643.264 216.76 643.224 219.848 643.144L219.56 644.8H212.456C208.136 644.8 205.04 644.176 203.168 642.928C202.816 642.656 202.544 642.424 202.352 642.232C201.6 643.336 200.656 644.32 199.52 645.184L198.392 643.72C199.496 642.92 200.44 641.96 201.224 640.84C200.28 639.48 199.52 637.776 198.944 635.728L200.384 635.2C200.848 636.864 201.408 638.248 202.064 639.352C202.88 637.64 203.36 635.648 203.504 633.376H199.064V632.032C200.504 630.192 201.784 628.272 202.904 626.272H198.968V624.64H204.848V626.056C203.744 628.088 202.56 630 201.296 631.792H205.064V632.824C204.968 635.96 204.336 638.648 203.168 640.888C203.552 641.288 203.944 641.608 204.344 641.848C205.944 642.744 208.4 643.216 211.712 643.264ZM227.456 623.536H229.16V645.328H227.456V636.976C226 638.528 224.36 639.976 222.536 641.32L222.008 639.52C224.008 638.192 225.824 636.664 227.456 634.936V623.536ZM223.952 625.912C224.864 627.816 225.656 629.872 226.328 632.08L224.816 632.776C224.08 630.424 223.248 628.312 222.32 626.44L223.952 625.912ZM240.152 623.872C241.4 625.264 242.392 626.528 243.128 627.664L241.784 628.624C241.112 627.504 240.12 626.2 238.808 624.712L240.152 623.872ZM237.488 623.464C237.488 625.224 237.464 627.352 237.416 629.848H243.272V631.504H237.608C238.648 636.912 240.816 641.072 244.112 643.984L242.936 645.28C239.912 642.432 237.872 638.816 236.816 634.432C235.808 638.768 233.928 642.408 231.176 645.352L230.024 644.056C233.24 640.456 235.088 636.272 235.568 631.504H230.744V629.848H235.664C235.744 626.76 235.784 624.632 235.784 623.464H237.488ZM257.864 623.344C257.784 624.096 257.632 624.952 257.408 625.912H266.672V627.568H258.992C260.16 630.224 263.136 632.296 267.92 633.784L267.008 635.272C261.696 633.4 258.44 630.832 257.24 627.568H256.88C256.352 628.976 255.64 630.184 254.744 631.192C254.632 631.304 254.552 631.392 254.504 631.456C255.496 632.144 256.664 633.104 258.008 634.336L256.808 635.536C255.656 634.384 254.504 633.352 253.352 632.44C251.8 633.592 249.56 634.56 246.632 635.344L245.96 633.76C249.352 632.896 251.816 631.664 253.352 630.064C253.992 629.392 254.536 628.56 254.984 627.568H247.112V625.912H255.584C255.856 625.016 256.04 624.104 256.136 623.176L257.864 623.344ZM250.136 637.72C249.56 640.2 248.752 642.36 247.712 644.2L246.224 643.264C247.248 641.472 247.984 639.504 248.432 637.36L250.136 637.72ZM257.528 636.496C258.392 637.776 259.128 639.12 259.736 640.528L258.152 641.224C257.448 639.544 256.736 638.128 256.016 636.976L257.528 636.496ZM264.704 637C265.856 638.776 266.864 640.696 267.728 642.76L266.144 643.456C265.216 641.216 264.184 639.24 263.048 637.528L264.704 637ZM254.36 644.896C252.744 644.896 251.936 644.096 251.936 642.496V637.288H253.712V642.136C253.712 642.856 254.104 643.216 254.888 643.216H260C260.512 643.216 260.872 643.072 261.08 642.784C261.368 642.448 261.56 641.456 261.656 639.808L263.288 640.336C263.128 642.464 262.8 643.776 262.304 644.272C261.856 644.688 261.192 644.896 260.312 644.896H254.36Z" fill="#666C73"/>
<line x1="114" y1="597" x2="640" y2="597" stroke="#DEDEDF" stroke-width="2"/>
<path d="M153 624C152.735 624 152.48 624.105 152.293 624.293C152.105 624.48 152 624.735 152 625V633H144C143.735 633 143.48 633.105 143.293 633.293C143.105 633.48 143 633.735 143 634C143 634.265 143.105 634.52 143.293 634.707C143.48 634.895 143.735 635 144 635H152V643C152 643.265 152.105 643.52 152.293 643.707C152.48 643.895 152.735 644 153 644C153.265 644 153.52 643.895 153.707 643.707C153.895 643.52 154 643.265 154 643V635H162C162.265 635 162.52 634.895 162.707 634.707C162.895 634.52 163 634.265 163 634C163 633.735 162.895 633.48 162.707 633.293C162.52 633.105 162.265 633 162 633H154V625C154 624.735 153.895 624.48 153.707 624.293C153.52 624.105 153.265 624 153 624Z" fill="#666C73"/>
<path d="M573.131 643.956L572.692 643.475C571.145 641.791 569.99 639.785 569.312 637.601L569.121 636.983L572.022 633L569.121 629.016L569.312 628.398C569.99 626.214 571.144 624.208 572.691 622.524L573.131 622.043L578.007 622.577L579.988 618.062L580.623 617.919C581.731 617.67 582.864 617.544 584 617.544C585.146 617.544 586.276 617.67 587.377 617.918L588.012 618.06L589.992 622.576L594.869 622.042L595.308 622.524C596.855 624.207 598.01 626.213 598.688 628.397L598.879 629.015L595.978 633L598.879 636.983L598.688 637.601C598.01 639.785 596.856 641.792 595.309 643.476L594.869 643.956L589.992 643.422L588.012 647.937L587.377 648.08C585.153 648.581 582.846 648.581 580.623 648.08L579.988 647.939L578.007 643.422L573.131 643.956ZM578.068 640.825C578.514 640.776 578.964 640.871 579.353 641.096C579.742 641.32 580.048 641.663 580.229 642.074L581.815 645.692C583.261 645.942 584.739 645.942 586.184 645.692L587.771 642.074C587.951 641.663 588.258 641.32 588.646 641.096C589.034 640.872 589.484 640.777 589.93 640.825L593.833 641.25C594.775 640.117 595.519 638.828 596.025 637.44L593.696 634.241C593.433 633.88 593.292 633.446 593.292 633C593.292 632.554 593.433 632.119 593.696 631.759L596.025 628.56C595.518 627.173 594.776 625.884 593.833 624.749L589.93 625.174C589.484 625.223 589.034 625.128 588.646 624.904C588.258 624.679 587.951 624.337 587.771 623.926L586.184 620.308C584.739 620.058 583.261 620.058 581.815 620.308L580.229 623.926C580.048 624.337 579.742 624.68 579.353 624.904C578.964 625.128 578.514 625.223 578.068 625.174L574.167 624.749C573.223 625.884 572.481 627.173 571.974 628.56L574.304 631.759C574.843 632.498 574.843 633.501 574.304 634.241L571.975 637.44C572.482 638.828 573.225 640.117 574.167 641.25L578.068 640.825ZM584 639.439C580.455 639.439 577.585 636.554 577.585 633C577.585 629.444 580.455 626.561 584 626.561C587.544 626.561 590.415 629.444 590.415 633C590.415 636.556 587.544 639.439 584 639.439ZM584 636.863C586.119 636.863 587.839 635.135 587.839 633C587.842 631.978 587.439 630.998 586.719 630.273C585.999 629.549 585.021 629.14 584 629.137C582.979 629.14 582 629.549 581.28 630.273C580.56 630.998 580.158 631.978 580.161 633C580.158 634.021 580.56 635.002 581.28 635.726C582 636.451 582.979 636.86 584 636.863Z" fill="#666C73"/>
</g>
<rect x="115.5" y="21.5" width="524" height="651" rx="15.5" stroke="#DEE0E3"/>
</g>
<defs>
<filter id="filter0_dddd_3796_16086" x="0" y="0" width="755" height="1075" filterUnits="userSpaceOnUse" color-interpolation-filters="sRGB">
<feFlood flood-opacity="0" result="BackgroundImageFix"/>
<feColorMatrix in="SourceAlpha" type="matrix" values="0 0 0 0 0 0 0 0 0 0 0 0 0 0 0 0 0 0 127 0" result="hardAlpha"/>
<feOffset dy="18"/>
<feGaussianBlur stdDeviation="19.5"/>
<feColorMatrix type="matrix" values="0 0 0 0 0.152941 0 0 0 0 0.211765 0 0 0 0 0.286275 0 0 0 0.1 0"/>
<feBlend mode="normal" in2="BackgroundImageFix" result="effect1_dropShadow_3796_16086"/>
<feColorMatrix in="SourceAlpha" type="matrix" values="0 0 0 0 0 0 0 0 0 0 0 0 0 0 0 0 0 0 127 0" result="hardAlpha"/>
<feOffset dy="72"/>
<feGaussianBlur stdDeviation="36"/>
<feColorMatrix type="matrix" values="0 0 0 0 0.152941 0 0 0 0 0.211765 0 0 0 0 0.286275 0 0 0 0.09 0"/>
<feBlend mode="normal" in2="effect1_dropShadow_3796_16086" result="effect2_dropShadow_3796_16086"/>
<feColorMatrix in="SourceAlpha" type="matrix" values="0 0 0 0 0 0 0 0 0 0 0 0 0 0 0 0 0 0 127 0" result="hardAlpha"/>
<feOffset dy="161"/>
<feGaussianBlur stdDeviation="48.5"/>
<feColorMatrix type="matrix" values="0 0 0 0 0.152941 0 0 0 0 0.211765 0 0 0 0 0.286275 0 0 0 0.05 0"/>
<feBlend mode="normal" in2="effect2_dropShadow_3796_16086" result="effect3_dropShadow_3796_16086"/>
<feColorMatrix in="SourceAlpha" type="matrix" values="0 0 0 0 0 0 0 0 0 0 0 0 0 0 0 0 0 0 127 0" result="hardAlpha"/>
<feOffset dy="287"/>
<feGaussianBlur stdDeviation="57.5"/>
<feColorMatrix type="matrix" values="0 0 0 0 0.152941 0 0 0 0 0.211765 0 0 0 0 0.286275 0 0 0 0.01 0"/>
<feBlend mode="normal" in2="effect3_dropShadow_3796_16086" result="effect4_dropShadow_3796_16086"/>
<feBlend mode="normal" in="SourceGraphic" in2="effect4_dropShadow_3796_16086" result="shape"/>
</filter>
<clipPath id="clip0_3796_16086">
<rect x="115" y="21" width="525" height="652" rx="16" fill="white"/>
</clipPath>
</defs>
</svg>
