<?xml version="1.0" encoding="utf-8"?>
<!-- Generator: Adobe Illustrator 21.0.0, SVG Export Plug-In . SVG Version: 6.00 Build 0)  -->
<svg version="1.0" id="图层_1" xmlns="http://www.w3.org/2000/svg" xmlns:xlink="http://www.w3.org/1999/xlink" x="0px" y="0px"
	 viewBox="0 0 50 50" style="enable-background:new 0 0 50 50;" xml:space="preserve">
<g>
	<polygon points="22.7,27.2 27.9,27.2 25.3,20.4 	"/>
	<path d="M25,14c-6.6,0-12,5.4-12,12s5.4,12,12,12s12-5.4,12-12S31.6,14,25,14z M31.3,31.9c-0.1,0.2-0.4,0.3-0.8,0.3
		c-0.3,0-0.5,0-0.6-0.2c-0.2-0.1-0.3-0.3-0.4-0.5l-1.3-3h-6l-0.9,2.3c-0.1,0.2-0.2,0.4-0.2,0.5c-0.1,0.2-0.2,0.3-0.3,0.5
		c-0.1,0.1-0.2,0.3-0.3,0.3c-0.1,0.1-0.3,0.1-0.4,0.1c-0.3,0-0.5-0.1-0.7-0.2c-0.2-0.2-0.2-0.5,0-0.9L24.2,19
		c0.1-0.2,0.2-0.4,0.4-0.5c0.2-0.1,0.4-0.2,0.7-0.2c0.3,0,0.6,0.1,0.8,0.2s0.3,0.3,0.4,0.5l4.8,12.1C31.4,31.4,31.4,31.7,31.3,31.9z
		"/>
</g>
</svg>
