<?xml version="1.0" encoding="utf-8"?>
<!-- Generator: Adobe Illustrator 21.0.0, SVG Export Plug-In . SVG Version: 6.00 Build 0)  -->
<svg version="1.0" id="图层_1" xmlns="http://www.w3.org/2000/svg" xmlns:xlink="http://www.w3.org/1999/xlink" x="0px" y="0px"
	 viewBox="0 0 50 50" style="enable-background:new 0 0 50 50;" xml:space="preserve">
<g>
	<path d="M25,14c-6.6,0-12,5.4-12,12c0,6.6,5.4,12,12,12s12-5.4,12-12C37,19.4,31.6,14,25,14z M29.3,31.8c-0.8,0.7-2,1-3.4,1h-4.6
		c-0.3,0-0.6-0.1-0.7-0.2c-0.2-0.1-0.2-0.3-0.2-0.6v-12c0-0.2,0.1-0.4,0.3-0.6c0.2-0.1,0.4-0.2,0.7-0.2h3.6c0.8,0,1.5,0.1,2.1,0.2
		c0.6,0.2,1.1,0.4,1.5,0.7c0.4,0.3,0.7,0.7,0.8,1.1c0.2,0.4,0.3,0.9,0.3,1.4c0,0.8-0.2,1.4-0.7,1.9c-0.5,0.5-1.1,0.8-1.9,1
		c1.1,0.1,1.9,0.5,2.6,1.1c0.7,0.6,1,1.3,1,2.4C30.5,30.2,30.1,31.1,29.3,31.8z"/>
	<path d="M27,24.4c0.5-0.4,0.8-0.9,0.8-1.5c0-0.6-0.2-1.1-0.7-1.5c-0.5-0.4-1.2-0.6-2.2-0.6h-2.8v4.3h2.8
		C25.8,24.9,26.5,24.7,27,24.4z"/>
	<path d="M27.7,26.9c-0.7-0.4-1.7-0.6-3.1-0.6h-2.6v5.1h3.1c1.2,0,2.1-0.2,2.7-0.6c0.6-0.4,0.9-1,0.9-1.9
		C28.8,28,28.4,27.3,27.7,26.9z"/>
</g>
</svg>
