<?xml version="1.0" standalone="no"?><!DOCTYPE svg PUBLIC "-//W3C//DTD SVG 1.1//EN" "http://www.w3.org/Graphics/SVG/1.1/DTD/svg11.dtd"><svg t="1536847593746" class="icon" style="" viewBox="0 0 1024 1024" version="1.1" xmlns="http://www.w3.org/2000/svg" p-id="6107" xmlns:xlink="http://www.w3.org/1999/xlink" width="200" height="200"><defs><style type="text/css"></style></defs><path d="M982.35399251 888.28319402L606.07079852 512 982.35399251 135.71680598c26.58522567-26.58522567 26.58522567-71.57560753 0-98.1608332-12.27010414-12.27010414-30.67526039-22.49519097-49.08041662-20.4501736-18.40515626 0-36.81031243 8.18006941-49.0804166 20.4501736L507.90996529 413.83916677 131.62677131 39.60099011c-12.27010414-12.27010414-30.67526039-18.40515626-49.08041664-18.40515621-18.40515626 0-36.81031243 6.13505212-49.08041661 18.40515621-12.27010414 12.27010414-20.45017358 28.63024301-20.45017362 47.03539928 0 18.40515626 8.18006941 34.76529509 20.45017362 49.08041659L411.79414943 512 33.46593806 888.28319402c-12.27010414 12.27010414-20.45017358 30.67526039-20.45017362 49.08041659 0 18.40515626 8.18006941 36.81031243 20.45017362 49.08041661 26.58522567 26.58522567 71.57560753 26.58522567 98.16083325 0l376.28319398-376.28319399 376.283194 376.28319399c12.27010414 12.27010414 30.67526039 20.45017358 49.0804166 20.4501736 18.40515626 0 36.81031243-8.18006941 49.08041662-20.4501736 12.27010414-12.27010414 20.45017358-30.67526039 20.45017359-49.08041661 0-18.40515626-6.13505212-34.76529509-20.45017359-49.08041659z" fill="#2c2c2c" p-id="6108"></path></svg>