<?xml version="1.0" encoding="utf-8"?>
<!-- Generator: Adobe Illustrator 21.0.0, SVG Export Plug-In . SVG Version: 6.00 Build 0)  -->
<svg version="1.1" id="图层_1" xmlns="http://www.w3.org/2000/svg" xmlns:xlink="http://www.w3.org/1999/xlink" x="0px" y="0px"
	 viewBox="0 0 100 100" style="enable-background:new 0 0 100 100;" xml:space="preserve">
<style type="text/css">
	.st0{fill:#1493DD;stroke:#FFFFFF;stroke-width:4;stroke-miterlimit:10;}
	.st1{fill:#1493DD;stroke:#FFFFFF;stroke-width:3;stroke-miterlimit:10;}
</style>
<path class="st0" d="M69.8,63.5c-3.1,5.2-8.9,8.9-17.8,8.8c-6.1,0-10.5-1.9-13.7-4.7c-1.1-0.9-2.7-0.3-2.9,1.1
	c-0.6,4-1.2,10.5,0.3,12.7c0.4,0.6,1.9,2,1.9,2s6.4,1.3,14.8,1.3l1.9-10.4h8.1l1,9.6c4.5-0.7,7.5-1.8,10.1-4.4
	C76.3,76.5,72.5,64.4,69.8,63.5z"/>
<path class="st1" d="M30.1,37.9c0,0-3.2,33.1,22.5,33.2c25.8,0.1,20.9-33.9,20.9-33.9S73,21.8,52.2,22.3
	C31.8,22.8,32.2,37.7,30.1,37.9z"/>
<path class="st0" d="M45.5,31.2c0,0,1.7,8.4,6.4,12.7l3.6-4.1l4.4,3c0,0,5.1-9.1,2.7-16.3c0,0,14.8,15.5,14.8,29.2
	c0,0,7.3-40.2-26.2-42.2c0,0-23.4,0.3-25.3,14.9c-1.9,14.6-4.8,15-1.2,22.8l4.3-5.7l2,5.5C31,50.9,41.3,33.4,45.5,31.2z"/>
<path class="st0" d="M72.5,20.7c0,0,2.3-13,10.4-4.6s10.4,32.4,10.4,32.4l-4.4,9l-6.5-11.3L72.5,20.7z"/>
<path class="st0" d="M28.3,21.2c0,0-2.3-13-10.4-4.6S7.5,49,7.5,49l4.4,9l6.5-11.3L28.3,21.2z"/>
<ellipse class="st1" cx="44.6" cy="50.2" rx="1.1" ry="3.8"/>
<ellipse class="st1" cx="64.1" cy="50.2" rx="1.1" ry="3.8"/>
<polygon class="st1" points="54.9,74.9 52.3,90.7 63.6,91.6 60.9,75.6 "/>
</svg>
