<?xml version="1.0" encoding="utf-8"?>
<!-- Generator: Adobe Illustrator 21.0.0, SVG Export Plug-In . SVG Version: 6.00 Build 0)  -->
<svg version="1.0" id="Layer_1" xmlns="http://www.w3.org/2000/svg" xmlns:xlink="http://www.w3.org/1999/xlink" x="0px" y="0px"
	 viewBox="0 0 51.6 43.6" style="enable-background:new 0 0 51.6 43.6;" xml:space="preserve">
<style type="text/css">
	.st0{fill:#4D6EB1;}
	.st1{fill:none;stroke:#4D6EB1;stroke-width:3;stroke-linecap:round;stroke-linejoin:round;stroke-miterlimit:10;}
</style>
<g>
	<path class="st0" d="M45.8,9.4v24.9h-40V9.4H45.8 M48.8,6.4h-3h-40h-3v3v24.9v3h3h40h3v-3V9.4V6.4L48.8,6.4z"/>
</g>
<path class="st1" d="M14.4,34.3c0,0,0-12,0-13.3c0-3.2,2.3-6.1,6.5-6.1c3.8,0,6.4,2.9,6.4,5.1c0,1.7,0,5.3,0,5.3l0,0
	c0,0,1.1-2.9,5.6-2.9c3.2,0,5.2,2.4,5.2,4.9c0,1.5,0,7,0,7"/>
</svg>
