<?xml version="1.0" standalone="no"?><!DOCTYPE svg PUBLIC "-//W3C//DTD SVG 1.1//EN" "http://www.w3.org/Graphics/SVG/1.1/DTD/svg11.dtd"><svg t="1536908242623" class="icon" style="" viewBox="0 0 1024 1024" version="1.1" xmlns="http://www.w3.org/2000/svg" p-id="7313" xmlns:xlink="http://www.w3.org/1999/xlink" width="200" height="200"><defs><style type="text/css"></style></defs><path d="M822.08256 117.65248H751.36v22.54848c0 24.03328-19.2 64-60.43648 64-38.12352 0-60.43136-39.96672-60.43136-64v-22.54848H408.86272v22.54848c0 24.03328-23.15776 64-60.43136 64-36.11136 0-60.43136-39.96672-60.43136-64v-22.54848H209.94048c-33.33632 3.29216-59.41248 32.32256-59.41248 67.67104v745.31328c0 37.56032 29.42976 68.00896 65.73056 68.00896h599.50592c36.29568 0 65.73056-30.44864 65.73056-68.00896V185.32352c0-35.34848-26.07616-64.37888-59.41248-67.67104zM753.44896 866.56h-464.64c-25.45152 0-46.08-20.62848-46.08-46.08s20.62848-46.08 46.08-46.08h464.64c25.45152 0 46.08 20.62848 46.08 46.08s-20.62848 46.08-46.08 46.08z m0-230.4h-464.64c-25.45152 0-46.08-20.62848-46.08-46.08s20.62848-46.08 46.08-46.08h464.64c25.45152 0 46.08 20.62848 46.08 46.08s-20.62848 46.08-46.08 46.08z m0-200.96h-464.64c-25.45152 0-46.08-20.62848-46.08-46.08s20.62848-46.08 46.08-46.08h464.64c25.45152 0 46.08 20.62848 46.08 46.08s-20.62848 46.08-46.08 46.08z" fill="#F8C86E" p-id="7314"></path></svg>