<?xml version="1.0" standalone="no"?><!DOCTYPE svg PUBLIC "-//W3C//DTD SVG 1.1//EN" "http://www.w3.org/Graphics/SVG/1.1/DTD/svg11.dtd"><svg t="1536888140662" class="icon" style="" viewBox="0 0 1157 1024" version="1.1" xmlns="http://www.w3.org/2000/svg" p-id="8168" xmlns:xlink="http://www.w3.org/1999/xlink" width="225.9765625" height="200"><defs><style type="text/css"></style></defs><path d="M1012.973 122.68C922.169 44.886 795.003 0 647.206 0 262.01 0 0 291.423 0 291.423L73.832 406.3s40.847 3.357 19.22-64.312c18.668-34.57 55.22-81.133 126.587-134.875v765.184c-30.768 8.515-71.434 24.52-43.71 51.694H388.02c27.999-27.459-16.109-43.985-42.98-51.694V791.79s145.418 55.96 302.166 55.96c137.737 0 263.045-40.173 356.257-112.735 93.203-72.145 153.278-179.873 152.908-303 0.275-120.889-52.508-231.831-143.398-309.333zM900.57 674.618c-64.455 62.388-158.18 101.84-266.306 101.765-120.624 0.057-222.17-22.841-289.214-55.202V556.743 147.096c73.557-51.238 192.872-82.812 289.214-82.622 117.058 0.085 208.981 43.444 271.123 109.255 62.046 66.2 95.924 154.131 96.227 256.342-0.37 99.602-36.589 181.636-101.044 244.546z" p-id="8169" fill="#0074AA"></path></svg>