<?xml version="1.0" standalone="no"?><!DOCTYPE svg PUBLIC "-//W3C//DTD SVG 1.1//EN" "http://www.w3.org/Graphics/SVG/1.1/DTD/svg11.dtd"><svg t="1536908386084" class="icon" style="" viewBox="0 0 1024 1024" version="1.1" xmlns="http://www.w3.org/2000/svg" p-id="8098" xmlns:xlink="http://www.w3.org/1999/xlink" width="200" height="200"><defs><style type="text/css"></style></defs><path d="M670.865217 161.508417l-311.004243 0c-32.509415 0-58.657958 26.214035-58.657958 58.551534l0 583.78493c0 32.775474 26.26213 58.551534 58.657958 58.551534l311.004243 0c32.509415 0 58.657958-26.214035 58.657958-58.551534L729.523175 220.060975C729.523175 187.2855 703.260022 161.508417 670.865217 161.508417zM517.309936 831.245951c-26.881231 0-48.672536-21.791305-48.672536-48.672536 0-26.881231 21.791305-48.672536 48.672536-48.672536 26.881231 0 48.672536 21.791305 48.672536 48.672536C565.982472 809.454646 544.191166 831.245951 517.309936 831.245951zM682.796968 706.644095l-334.868767 0L347.928201 278.323936l334.868767 0L682.796968 706.644095z" p-id="8099" fill="#89898A"></path></svg>