<?xml version="1.0" encoding="utf-8"?>
<!-- Generator: Adobe Illustrator 21.0.0, SVG Export Plug-In . SVG Version: 6.00 Build 0)  -->
<svg version="1.0" id="Layer_1" xmlns="http://www.w3.org/2000/svg" xmlns:xlink="http://www.w3.org/1999/xlink" x="0px" y="0px"
	 viewBox="0 0 48.9 47.1" style="enable-background:new 0 0 48.9 47.1;" xml:space="preserve">
<style type="text/css">
	.st0{fill:#74797A;}
</style>
<g>
	<path class="st0" d="M34.6,4.6c0,0,4.4,4.6,6.2,6.3c1.7,1.7,3.5,5.7,0.9,8.3C39,21.9,21.8,39.1,20.4,40.6c-0.8,0.8-2.4,1.2-4.1,1.2
		c-1.5,0-3-0.3-3.8-1.1c-2.3-2.1-6.9-6.9-6.9-6.9L34.6,4.6 M34.7,0.3l-2.2,2.2L3.4,31.6l-2.1,2.1l2,2.1c0.2,0.2,4.7,4.9,7.1,7.1
		c1.8,1.7,4.4,1.9,5.8,1.9c1,0,4.3-0.2,6.2-2.1l8.1-8.1l13.2-13.2c1.9-1.9,2.6-4.5,2-7.3c-0.4-1.9-1.5-3.9-2.9-5.3
		c-1.7-1.7-6.1-6.2-6.1-6.3L34.7,0.3L34.7,0.3z"/>
</g>
<g>
	<circle class="st0" cx="19.4" cy="30.7" r="3.6"/>
</g>
<g>
	<circle class="st0" cx="27.7" cy="22.4" r="1.8"/>
</g>
<g>
	<circle class="st0" cx="33.6" cy="22.4" r="1.8"/>
</g>
<g>
	<circle class="st0" cx="33.6" cy="16.4" r="1.8"/>
</g>
<g>
	<circle class="st0" cx="27.7" cy="16.4" r="1.8"/>
</g>
</svg>
