<?xml version="1.0" encoding="utf-8"?>
<!-- Generator: Adobe Illustrator 21.0.0, SVG Export Plug-In . SVG Version: 6.00 Build 0)  -->
<svg version="1.0" id="Layer_1" xmlns="http://www.w3.org/2000/svg" xmlns:xlink="http://www.w3.org/1999/xlink" x="0px" y="0px"
	 viewBox="0 0 42.9 43.6" style="enable-background:new 0 0 42.9 43.6;" xml:space="preserve">
<style type="text/css">
	.st0{fill:#DB4C47;}
	.st1{fill:none;stroke:#DB4C47;stroke-width:3;stroke-miterlimit:10;}
</style>
<g>
	<path class="st0" d="M32.7,3.8c3.3,0,6,2.7,6,6v16.9c0,3.3-2.7,5.1-6,5.1h-5.5l-5.9,4.4l-5.2-4.4H9.9c-3.3,0-6-1.8-6-5.1V9.8
		c0-3.3,2.7-6,6-6H32.7 M32.7,0.8H9.9c-5,0-9,4-9,9v16.9c0,4.7,3.8,8.1,9,8.1H15l4.3,3.7l1.8,1.5l1.9-1.4l5.1-3.8h4.5
		c5.2,0,9-3.4,9-8.1V9.8C41.7,4.8,37.6,0.8,32.7,0.8L32.7,0.8z"/>
</g>
<line class="st1" x1="3.9" y1="19.2" x2="38.7" y2="19.2"/>
<line class="st1" x1="7.9" y1="26.6" x2="21.3" y2="26.6"/>
</svg>
