<?xml version="1.0" encoding="utf-8"?>
<!-- Generator: Adobe Illustrator 21.0.0, SVG Export Plug-In . SVG Version: 6.00 Build 0)  -->
<svg version="1.1" id="图层_1" xmlns="http://www.w3.org/2000/svg" xmlns:xlink="http://www.w3.org/1999/xlink" x="0px" y="0px"
	 viewBox="0 0 200 200" style="enable-background:new 0 0 200 200;" xml:space="preserve">
<style type="text/css">
	.st0{fill:#C51A18;}
</style>
<path class="st0" d="M118.1,200h30.6c28.1,0,51.2-23.1,51.2-51.2V51.2C200,23.1,176.9,0,148.8,0h-31.3c-0.6,0-1.2,0.6-1.2,1.2v197.5
	C116.2,199.4,116.9,200,118.1,200L118.1,200z M156.2,90c11.3,0,20,9.4,20,20c0,11.3-9.4,20-20,20c-11.2,0-20-8.7-20-20
	C135.6,98.8,145,90,156.2,90z M95,0H51.2C23.1,0,0,23.1,0,51.2v97.5C0,176.9,23.1,200,51.2,200H95c0.6,0,1.2-0.6,1.2-1.2V1.2
	C96.3,0.6,95.6,0,95,0z M80.6,183.8H51.2c-19.3,0-35-15.6-35-34.9c0,0,0-0.1,0-0.1V51.2c0-19.3,15.6-35,34.9-35c0,0,0.1,0,0.1,0H80
	L80.6,183.8L80.6,183.8z M31.2,60c0,10.6,8.1,18.7,18.8,18.7S68.8,70.6,68.8,60c0-10.6-8.1-18.8-18.8-18.8S31.2,49.4,31.2,60z"/>
</svg>
