<?xml version="1.0" standalone="no"?><!DOCTYPE svg PUBLIC "-//W3C//DTD SVG 1.1//EN" "http://www.w3.org/Graphics/SVG/1.1/DTD/svg11.dtd"><svg t="1522891316811" class="icon" style="" viewBox="0 0 1024 1024" version="1.1" xmlns="http://www.w3.org/2000/svg" p-id="6307" xmlns:xlink="http://www.w3.org/1999/xlink" width="200" height="200"><defs><style type="text/css"></style></defs><path d="M512 56.889c-250.311 0-455.111 204.8-455.111 455.111S261.689 967.111 512 967.111 967.111 762.311 967.111 512 762.311 56.889 512 56.889m0 853.333c-221.867 0-398.222-176.355-398.222-398.222S290.133 113.778 512 113.778 910.222 290.133 910.222 512 733.867 910.222 512 910.222" fill="#7a7a7a" p-id="6308"></path><path d="M506.311 682.667c-17.067 0-28.444 5.689-39.822 17.066-11.378 11.378-17.067 22.756-17.067 39.823 0 17.066 5.69 28.444 17.067 39.822 11.378 11.378 22.755 17.066 39.822 17.066 17.067 0 28.445-5.688 39.822-17.066C557.511 768 563.2 756.622 563.2 739.556c0-17.067-5.689-28.445-17.067-39.823-11.377-11.377-22.755-17.066-39.822-17.066z m17.067-466.49c-56.89 0-102.4 17.067-136.534 51.2-39.822 34.134-56.888 79.645-56.888 136.534h85.333c0-34.133 5.689-62.578 22.755-79.644 17.067-22.756 39.823-34.134 79.645-34.134 28.444 0 51.2 5.69 68.267 22.756 17.066 17.067 22.755 39.822 22.755 62.578 0 22.755-5.689 39.822-22.755 56.889l-17.067 17.066c-45.511 45.511-79.645 79.645-91.022 102.4-11.378 17.067-11.378 45.511-11.378 73.956v11.378h85.333v-11.378c0-17.067 5.69-34.134 11.378-51.2 5.689-17.067 17.067-28.445 34.133-39.822 39.823-34.134 62.578-51.2 68.267-62.578 22.756-22.756 28.444-56.89 28.444-96.711 0-45.511-17.066-85.334-45.51-113.778-34.134-34.133-73.956-45.511-125.156-45.511z" fill="#7a7a7a" p-id="6309"></path></svg>