<?xml version="1.0" standalone="no"?><!DOCTYPE svg PUBLIC "-//W3C//DTD SVG 1.1//EN" "http://www.w3.org/Graphics/SVG/1.1/DTD/svg11.dtd"><svg t="1535984701357" class="icon" style="" viewBox="0 0 1024 1024" version="1.1" xmlns="http://www.w3.org/2000/svg" p-id="3132" xmlns:xlink="http://www.w3.org/1999/xlink" width="200" height="200"><defs><style type="text/css"></style></defs><path d="M184.729089 389.912609h649.428214c30.681648 0 51.13608-20.454432 35.795256-35.795256-15.340824-15.340824-311.930087-327.270911-327.270911-342.611735-15.340824-15.340824-51.13608-15.340824-71.590512 0C460.86392 31.96005 174.501873 328.549313 154.047441 354.117353c-20.454432 15.340824 0 35.795256 30.681648 35.795256z" fill="" p-id="3133"></path><path d="M839.270911 635.365793H184.729089c-30.681648 0-51.13608 20.454432-35.795256 35.795256 25.56804 25.56804 311.930087 327.270911 327.270911 337.498127 15.340824 20.454432 56.249688 15.340824 71.590512 0 10.227216-10.227216 306.816479-322.157303 322.157303-337.498127 20.454432-15.340824-5.113608-35.795256-30.681648-35.795256z" fill="#C5C5C5" p-id="3134"></path></svg>