<?xml version="1.0" encoding="utf-8"?>
<!-- Generator: Adobe Illustrator 21.0.0, SVG Export Plug-In . SVG Version: 6.00 Build 0)  -->
<svg version="1.0" id="Layer_1" xmlns="http://www.w3.org/2000/svg" xmlns:xlink="http://www.w3.org/1999/xlink" x="0px" y="0px"
	 viewBox="0 0 41.9 41.8" style="enable-background:new 0 0 41.9 41.8;" xml:space="preserve">
<style type="text/css">
	.st0{fill:#75797A;}
	.st1{fill:none;stroke:#75797A;stroke-width:3;stroke-miterlimit:10;}
</style>
<g>
	<path class="st0" d="M21.1,9.4c6.3,0,11.3,5.1,11.3,11.3S27.4,32,21.1,32C14.9,32,9.8,27,9.8,20.7S14.9,9.4,21.1,9.4 M21.1,6.4
		c-7.9,0-14.3,6.4-14.3,14.3c0,7.9,6.4,14.3,14.3,14.3s14.3-6.4,14.3-14.3C35.4,12.8,29,6.4,21.1,6.4L21.1,6.4z"/>
</g>
<line class="st1" x1="21" y1="0" x2="21" y2="7.4"/>
<line class="st1" x1="21" y1="34.5" x2="21" y2="41.8"/>
<line class="st1" x1="41.9" y1="20.8" x2="34.6" y2="20.8"/>
<line class="st1" x1="7.4" y1="20.8" x2="0" y2="20.8"/>
<line class="st1" x1="11.2" y1="30.6" x2="6" y2="35.8"/>
<line class="st1" x1="35.9" y1="5.8" x2="30.7" y2="11"/>
<line class="st1" x1="5.9" y1="5.8" x2="11.1" y2="11"/>
<line class="st1" x1="30.7" y1="30.5" x2="35.9" y2="35.7"/>
</svg>
