<?xml version="1.0" encoding="utf-8"?>
<!-- Generator: Adobe Illustrator 23.0.2, SVG Export Plug-In . SVG Version: 6.00 Build 0)  -->
<svg version="1.1" id="图层_1" xmlns="http://www.w3.org/2000/svg" xmlns:xlink="http://www.w3.org/1999/xlink" x="0px" y="0px"
	 viewBox="0 0 50 50" style="enable-background:new 0 0 50 50;" xml:space="preserve">
<style type="text/css">
	.st0{fill:#343535;}
</style>
<g>
	<path class="st0" d="M20.7,28.7h27.1c0.2-1.1,0.2-2.2,0.2-3.4c0-12.7-10.3-23-23-23c-1.5,0-2.9,0.1-4.3,0.4V28.7z"/>
	<path class="st0" d="M9.9,28.7V7.9C5.1,12.1,2,18.3,2,25.3c0,1.1,0.1,2.3,0.2,3.4H9.9z"/>
	<path class="st0" d="M20.7,33v14.8c1.4,0.3,2.9,0.4,4.3,0.4c10,0,18.5-6.4,21.6-15.3H20.7z"/>
	<path class="st0" d="M9.9,33H3.4c1.3,3.7,3.6,7,6.6,9.6V33z"/>
</g>
</svg>
