<?xml version="1.0" standalone="no"?><!DOCTYPE svg PUBLIC "-//W3C//DTD SVG 1.1//EN" "http://www.w3.org/Graphics/SVG/1.1/DTD/svg11.dtd"><svg t="1539526787509" class="icon" style="" viewBox="0 0 1024 1024" version="1.1" xmlns="http://www.w3.org/2000/svg" p-id="1947" xmlns:xlink="http://www.w3.org/1999/xlink" width="200" height="200"><defs><style type="text/css"></style></defs><path d="M559.445333 84.864l93.952 198.4a59.975111 59.975111 0 0 0 45.482667 34.318222l209.664 31.815111c49.521778 7.566222 69.233778 71.168 33.365333 107.534223L790.314667 611.882667a64.796444 64.796444 0 0 0-17.137778 56.035555l35.854222 218.083556c8.604444 51.470222-43.448889 90.823111-87.907555 66.616889l-187.946667-103.452445a58.197333 58.197333 0 0 0-56.078222 0l-187.434667 102.954667c-44.458667 24.206222-96-15.160889-87.921778-66.645333l35.882667-218.083556a64.952889 64.952889 0 0 0-17.166222-56.035556L68.380444 457.400889c-35.882667-36.337778-16.170667-99.968 33.336889-107.52l209.678223-31.786667a59.946667 59.946667 0 0 0 45.468444-34.360889l93.966222-198.357333c22.243556-47.445333 86.385778-47.445333 108.615111-0.512z" fill="#2c2c2c" p-id="1948"></path></svg>