<?xml version="1.0" standalone="no"?><!DOCTYPE svg PUBLIC "-//W3C//DTD SVG 1.1//EN" "http://www.w3.org/Graphics/SVG/1.1/DTD/svg11.dtd"><svg t="1536847160551" class="icon" style="" viewBox="0 0 1025 1024" version="1.1" xmlns="http://www.w3.org/2000/svg" p-id="1875" xmlns:xlink="http://www.w3.org/1999/xlink" width="200.1953125" height="200"><defs><style type="text/css"></style></defs><path d="M511.952569 0C229.122112 0 0.002486 229.21946 0.002486 511.950083c0 282.730623 229.21946 512.049917 512.049917 512.049917 282.730623 0 512.049917-229.21946 512.049917-512.049917C1024.002486 229.21946 794.783026 0 511.952569 0z m-53.810666 160.633324c14.475968-15.574144 33.644145-23.361217 57.205031-23.361217 28.652432 0 47.920445 9.983426 57.504533 29.850443 9.783757 19.867018 14.475968 48.51945 14.475968 85.857464 0 22.063371-1.098177 44.426245-3.494199 67.088622l-21.464366 246.989958c-2.296188 29.351272-7.287901 51.913815-14.975139 67.587794-7.587404 15.773813-20.266355 23.560885-38.036853 23.560885-17.970167 0-30.549283-7.587404-37.537681-22.762211-6.988398-15.174807-11.980111-38.336356-14.975139-69.484645l-15.973482-239.901725c-2.995028-46.822268-4.492542-80.366579-4.492541-100.732768 0-27.554256 7.287901-49.21829 21.763868-64.6926z m106.822658 715.112801c-15.074973 13.377791-32.545969 19.966852-52.612655 19.966852-20.266355 0-38.036853-6.489227-53.21166-19.767184-15.074973-13.178122-22.762211-31.64746-22.762211-55.408014 0-20.765526 7.287901-38.236521 21.763868-52.812323 14.475968-14.575802 32.246466-21.863703 53.21166-21.863703s39.035195 7.287901 53.810666 21.863703c14.77547 14.575802 22.26304 32.046797 22.26304 52.812323 0 23.461051-7.487569 41.830555-22.462708 55.208346z m0 0" fill="#00c0a7" p-id="1876"></path></svg>