<?xml version="1.0" encoding="utf-8"?>
<!-- Generator: Adobe Illustrator 21.0.0, SVG Export Plug-In . SVG Version: 6.00 Build 0)  -->
<svg version="1.0" id="图层_1" xmlns="http://www.w3.org/2000/svg" xmlns:xlink="http://www.w3.org/1999/xlink" x="0px" y="0px"
	 viewBox="0 0 50 50" style="enable-background:new 0 0 50 50;" xml:space="preserve">
<path d="M25,14c-6.6,0-12,5.4-12,12c0,6.6,5.4,12,12,12s12-5.4,12-12C37,19.4,31.6,14,25,14z M30,21.5l-4.2,6.4v5.4
	c0,0.2-0.1,0.4-0.2,0.6c-0.1,0.1-0.4,0.2-0.7,0.2c-0.3,0-0.6-0.1-0.7-0.2c-0.1-0.1-0.2-0.3-0.2-0.6v-5.4l-4.2-6.4
	c-0.2-0.2-0.2-0.5-0.2-0.7c0-0.2,0.1-0.4,0.3-0.5s0.4-0.2,0.6-0.1s0.4,0.2,0.6,0.4l3.7,5.8l3.6-5.7c0.1-0.2,0.2-0.3,0.4-0.4
	s0.3-0.1,0.4-0.2c0.1,0,0.2,0,0.3,0s0.2,0,0.3,0.1c0.2,0.1,0.3,0.3,0.3,0.5C30.2,21,30.1,21.2,30,21.5z"/>
</svg>
